<?xml version="1.0" encoding="UTF-8" standalone="no"?>
<!-- Created with Inkscape (http://www.inkscape.org/) -->

<svg
   xmlns:dc="http://purl.org/dc/elements/1.1/"
   xmlns:cc="http://creativecommons.org/ns#"
   xmlns:rdf="http://www.w3.org/1999/02/22-rdf-syntax-ns#"
   xmlns:svg="http://www.w3.org/2000/svg"
   xmlns="http://www.w3.org/2000/svg"
   xmlns:sodipodi="http://sodipodi.sourceforge.net/DTD/sodipodi-0.dtd"
   xmlns:inkscape="http://www.inkscape.org/namespaces/inkscape"
   width="43.272102mm"
   height="10.222711mm"
   viewBox="0 0 43.272104 10.222711"
   version="1.1"
   id="svg8"
   inkscape:version="0.92.3 (2405546, 2018-03-11)"
   sodipodi:docname="desenhando.svg">
  <defs
     id="defs2" />
  <sodipodi:namedview
     id="base"
     pagecolor="#ffffff"
     bordercolor="#666666"
     borderopacity="1.0"
     inkscape:pageopacity="0.0"
     inkscape:pageshadow="2"
     inkscape:zoom="1"
     inkscape:cx="204.82339"
     inkscape:cy="32.439439"
     inkscape:document-units="mm"
     inkscape:current-layer="layer1"
     showgrid="false"
     inkscape:snap-global="true"
     inkscape:window-width="1366"
     inkscape:window-height="705"
     inkscape:window-x="272"
     inkscape:window-y="1072"
     inkscape:window-maximized="1" />
  <metadata
     id="metadata5">
    <rdf:RDF>
      <cc:Work
         rdf:about="">
        <dc:format>image/svg+xml</dc:format>
        <dc:type
           rdf:resource="http://purl.org/dc/dcmitype/StillImage" />
        <dc:title></dc:title>
      </cc:Work>
    </rdf:RDF>
  </metadata>
  <g
     inkscape:label="Camada 1"
     inkscape:groupmode="layer"
     id="layer1"
     transform="translate(43.94417,-56.555244)">
    <g
       aria-label="TX  Quizes"
       transform="matrix(0.06595969,0,0,0.09727151,-40.577025,54.013539)"
       style="font-style:normal;font-weight:normal;font-size:146.11930847px;line-height:1.25;font-family:sans-serif;letter-spacing:0px;word-spacing:0px;fill:#000000;fill-opacity:1;stroke:none;stroke-width:3.65298223"
       id="text4543">
      <path
         d="M -2.7463915,129.44092 H -20.226485 V 48.604406 h -30.822041 v -14.6262 h 79.052829 v 14.6262 H -2.7463915 Z"
         style="font-style:normal;font-variant:normal;font-weight:bold;font-stretch:normal;font-family:Corbel;-inkscape-font-specification:'Corbel Bold';stroke-width:3.65298223"
         id="path4545"
         inkscape:connector-curvature="0" />
      <path
         d="m 66.7459,53.598718 q 6.92069,10.059972 9.703236,14.412159 h 0.356736 q 3.852755,-5.993175 9.631888,-14.340811 l 13.62734,-19.69186 h 20.11994 L 86.937191,80.924741 121.61199,129.44092 H 101.77743 L 86.865844,108.10807 Q 81.372101,100.25986 76.734525,93.267827 h -0.285389 q -4.851618,7.277423 -10.13132,14.840243 L 51.406227,129.44092 H 31.571672 L 66.246469,80.924741 32.998619,33.978206 h 20.119943 z"
         style="font-style:normal;font-variant:normal;font-weight:bold;font-stretch:normal;font-family:Corbel;-inkscape-font-specification:'Corbel Bold';stroke-width:3.65298223"
         id="path4547"
         inkscape:connector-curvature="0" />
      <path
         d="m 248.92101,81.709562 q 0,-8.704373 -3.23612,-15.196979 -3.23612,-6.563953 -8.95326,-10.91614 -5.71713,-4.352186 -13.5917,-6.492606 -7.87454,-2.140419 -17.25929,-2.140419 -9.38475,0 -17.25929,2.140419 -7.87455,2.14042 -13.5917,6.492606 -5.71714,4.352187 -8.95326,10.91614 -3.23612,6.492606 -3.23612,15.196979 0,8.704373 3.23612,15.268326 3.23612,6.492602 8.95326,10.844792 5.71715,4.28084 13.5917,6.49261 7.87454,2.14042 17.25929,2.14042 9.38475,0 17.25929,-2.14042 7.87457,-2.21177 13.5917,-6.49261 5.71714,-4.35219 8.95326,-10.844792 3.23612,-6.563953 3.23612,-15.268326 z m 2.91251,35.530968 q 2.69676,-0.49943 6.14862,-0.92752 3.45186,-0.42808 7.11946,-0.71347 3.77548,-0.28539 7.44306,-0.42809 3.77548,-0.14269 7.33521,-0.14269 h 2.04954 v 15.19698 q -5.71714,-0.35674 -13.80744,-0.57078 -8.09028,-0.21404 -17.15142,-0.21404 -6.79585,0 -12.18938,0.21404 -5.39352,0.21404 -10.89493,0.42808 -5.39352,0.28539 -11.3264,0.49944 -5.82502,0.21404 -11.43429,0.21404 -16.93569,0 -29.88016,-3.56737 -12.94448,-3.56736 -21.78986,-10.05997 -8.84539,-6.49261 -13.37595,-15.48237 -4.53057,-9.061108 -4.53057,-19.977248 0,-10.91614 4.63843,-19.977249 4.74632,-9.132457 13.69957,-15.69641 9.06114,-6.563954 22.11347,-10.202667 13.16022,-3.638713 29.88016,-3.638713 16.71995,0 29.77228,3.638713 13.16021,3.638713 22.11348,10.131319 9.06113,6.492606 13.69956,15.482368 4.74631,8.918415 4.74631,19.549166 0,5.56509 -1.61806,10.844792 -1.61806,5.279702 -4.74631,9.845929 -3.02037,4.56623 -7.65881,8.56168 -4.63843,3.9241 -10.57132,6.77799 z"
         style="font-style:normal;font-variant:normal;font-weight:bold;font-stretch:normal;font-family:Corbel;-inkscape-font-specification:'Corbel Bold';stroke-width:4.49169493"
         id="path4549"
         inkscape:connector-curvature="0" />
      <path
         d="m 328.80459,131.2246 q -10.41671,0 -17.26605,-3.49602 -6.84934,-3.56736 -10.34536,-9.56054 -1.85503,-3.21063 -2.78255,-7.06338 -0.85617,-3.85276 -0.85617,-8.56168 V 60.305366 h 16.90932 V 100.7593 q 0,3.49601 0.49943,6.06452 0.49943,2.49715 1.49829,4.35218 1.71234,3.13929 4.85162,4.70893 3.13928,1.49829 7.49147,1.49829 4.56623,0 7.77686,-1.71233 3.28197,-1.71234 4.92296,-5.20836 1.64099,-3.35332 1.64099,-9.3465 V 60.305366 h 16.90932 v 42.237614 q 0,8.41898 -2.92524,14.19812 -1.64099,3.28197 -4.28084,5.99317 -2.56851,2.63985 -6.13587,4.56623 -3.49602,1.85503 -7.9909,2.85389 -4.42354,1.07021 -9.91728,1.07021 z"
         style="font-style:normal;font-variant:normal;font-weight:bold;font-stretch:normal;font-family:Corbel;-inkscape-font-specification:'Corbel Bold';stroke-width:3.65298223"
         id="path4551"
         inkscape:connector-curvature="0" />
      <path
         d="m 378.31965,60.305366 h 16.90931 v 69.135554 h -16.90931 z m -0.42809,-34.175365 h 17.76549 v 18.336261 h -17.76549 z"
         style="font-style:normal;font-variant:normal;font-weight:bold;font-stretch:normal;font-family:Corbel;-inkscape-font-specification:'Corbel Bold';stroke-width:3.65298223"
         id="path4553"
         inkscape:connector-curvature="0" />
      <path
         d="M 444.38724,74.218093 H 410.63996 V 60.305366 h 55.43687 v 10.488056 l -34.24672,44.734768 h 36.74387 v 13.91273 H 409.4984 v -9.56054 z"
         style="font-style:normal;font-variant:normal;font-weight:bold;font-stretch:normal;font-family:Corbel;-inkscape-font-specification:'Corbel Bold';stroke-width:3.65298223"
         id="path4555"
         inkscape:connector-curvature="0" />
      <path
         d="m 518.23173,117.59726 q 4.92297,0 10.27401,-0.99886 5.35105,-0.99886 10.8448,-2.85389 v 13.48464 q -3.28198,1.42695 -10.05998,2.7112 -6.77799,1.28425 -14.05542,1.28425 -7.34877,0 -13.98407,-1.85503 -6.56395,-1.92638 -11.48692,-6.13587 -4.92296,-4.20949 -7.8482,-10.91614 -2.8539,-6.70665 -2.8539,-16.267187 0,-9.417846 2.7112,-16.481231 2.7112,-7.063384 7.27743,-11.70096 4.56623,-4.637576 10.41671,-6.92069 5.92182,-2.354461 12.20039,-2.354461 6.56395,0 12.05769,1.997725 5.56509,1.997724 9.56054,6.278564 4.0668,4.280839 6.27857,11.058834 2.28311,6.706648 2.28311,15.910452 -0.0713,3.567366 -0.21404,6.064522 H 496.3281 q 0.35674,4.780272 2.14042,8.204942 1.78369,3.35332 4.63758,5.49374 2.92524,2.06908 6.77799,3.06794 3.85276,0.92751 8.34764,0.92751 z m -6.77799,-45.804975 q -3.21063,0 -5.70779,1.212904 -2.49716,1.141557 -4.35219,3.210629 -1.78368,1.997725 -2.85389,4.708923 -1.07021,2.711198 -1.42695,5.779133 h 27.18333 q 0,-3.067935 -0.85617,-5.779133 -0.78482,-2.711198 -2.4258,-4.708923 -1.56965,-2.069072 -3.99545,-3.210629 -2.35447,-1.212904 -5.56509,-1.212904 z"
         style="font-style:normal;font-variant:normal;font-weight:bold;font-stretch:normal;font-family:Corbel;-inkscape-font-specification:'Corbel Bold';stroke-width:3.65298223"
         id="path4557"
         inkscape:connector-curvature="0" />
      <path
         d="m 588.29479,109.39232 q 0,-2.21177 -1.28425,-3.63871 -1.2129,-1.42695 -3.28198,-2.35446 -2.06907,-0.99887 -4.78027,-1.71234 -2.63985,-0.71347 -5.56509,-1.42695 -3.71006,-0.998858 -7.13473,-2.28311 -3.42467,-1.355599 -6.06452,-3.496018 -2.56851,-2.14042 -4.13815,-5.351049 -1.49829,-3.281977 -1.49829,-7.9909 0,-5.779133 2.06907,-9.988624 2.06907,-4.280839 5.56509,-7.063385 3.56737,-2.782545 8.20494,-4.138144 4.70893,-1.355599 9.91728,-1.355599 6.34991,0 11.915,1.070209 5.56509,0.998863 10.05998,2.639851 v 13.770033 q -2.35447,-0.784821 -4.99432,-1.426947 -2.5685,-0.713473 -5.2797,-1.212904 -2.63985,-0.499431 -5.2797,-0.784821 -2.63985,-0.356736 -4.99431,-0.356736 -2.99659,0 -5.06566,0.570778 -2.06907,0.570779 -3.35333,1.569641 -1.28425,0.927515 -1.85503,2.211767 -0.57077,1.212905 -0.57077,2.568504 0,2.354461 1.2129,3.852755 1.28425,1.498294 3.49602,2.425809 2.21177,0.927515 4.63757,1.569641 2.42581,0.570778 4.70893,1.141557 3.56736,0.856168 7.13473,2.069072 3.56737,1.212904 6.42126,3.424671 2.85389,2.14042 4.63757,5.636439 1.85503,3.42467 1.85503,8.77572 0,5.85048 -2.21176,10.20267 -2.21177,4.35218 -6.20722,7.27742 -3.9241,2.8539 -9.48919,4.20949 -5.49375,1.42695 -12.12905,1.42695 -6.56395,0 -11.84365,-1.07021 -5.20836,-0.99886 -8.63303,-2.5685 v -13.62734 q 5.56509,2.06907 10.27402,2.85389 4.70892,0.71348 8.77572,0.71348 3.13928,0 5.85048,-0.42809 2.71119,-0.49943 4.63757,-1.49829 1.99773,-0.99886 3.13928,-2.49716 1.14156,-1.56964 1.14156,-3.71006 z"
         style="font-style:normal;font-variant:normal;font-weight:bold;font-stretch:normal;font-family:Corbel;-inkscape-font-specification:'Corbel Bold';stroke-width:3.65298223"
         id="path4559"
         inkscape:connector-curvature="0" />
    </g>
  </g>
</svg>
