<?xml version="1.0" encoding="UTF-8" standalone="no"?>
<!-- Created with Inkscape (http://www.inkscape.org/) -->

<svg
   xmlns:dc="http://purl.org/dc/elements/1.1/"
   xmlns:cc="http://creativecommons.org/ns#"
   xmlns:rdf="http://www.w3.org/1999/02/22-rdf-syntax-ns#"
   xmlns:svg="http://www.w3.org/2000/svg"
   xmlns="http://www.w3.org/2000/svg"
   xmlns:sodipodi="http://sodipodi.sourceforge.net/DTD/sodipodi-0.dtd"
   xmlns:inkscape="http://www.inkscape.org/namespaces/inkscape"
   version="1.1"
   id="svg29"
   xml:space="preserve"
   width="24.000002"
   height="23.999975"
   viewBox="0 0 24.000002 23.999975"
   sodipodi:docname="elo.svg"
   inkscape:version="0.92.2 (5c3e80d, 2017-08-06)"><metadata
     id="metadata35"><rdf:RDF><cc:Work
         rdf:about=""><dc:format>image/svg+xml</dc:format><dc:type
           rdf:resource="http://purl.org/dc/dcmitype/StillImage" /></cc:Work></rdf:RDF></metadata><defs
     id="defs33" /><sodipodi:namedview
     pagecolor="#ffffff"
     bordercolor="#666666"
     borderopacity="1"
     objecttolerance="10"
     gridtolerance="10"
     guidetolerance="10"
     inkscape:pageopacity="0"
     inkscape:pageshadow="2"
     inkscape:window-width="1366"
     inkscape:window-height="768"
     id="namedview31"
     showgrid="false"
     inkscape:zoom="1.2276126"
     inkscape:cx="232.85316"
     inkscape:cy="135.10194"
     inkscape:window-x="0"
     inkscape:window-y="0"
     inkscape:window-maximized="1"
     inkscape:current-layer="g37" /><g
     id="g37"
     inkscape:groupmode="layer"
     inkscape:label="ink_ext_XXXXXX"
     transform="matrix(1.3333333,0,0,-1.3333333,-1.7199471e-4,24.000668)"><g
       id="g39"
       transform="matrix(0.00515341,0,0,0.00515341,1.2234834e-4,4.9225004e-4)"><path
         d="M 1746.42,3490 C 2709.37,3490 3490,2709.37 3490,1746.42 3490,783.461 2709.37,2.83984 1746.42,2.83984 783.469,2.83984 2.83594,783.461 2.83594,1746.42 2.83594,2709.37 783.469,3490 1746.42,3490 v 0"
         style="fill:#151316;fill-opacity:1;fill-rule:evenodd;stroke:none"
         id="path41"
         inkscape:connector-curvature="0" /><path
         d="M 1746.42,3490 C 2709.37,3490 3490,2709.37 3490,1746.42 3490,783.461 2709.37,2.83984 1746.42,2.83984 783.469,2.83984 2.83594,783.461 2.83594,1746.42 2.83594,2709.37 783.469,3490 1746.42,3490 Z"
         style="fill:none;stroke:#211c1d;stroke-width:5.66930008;stroke-linecap:butt;stroke-linejoin:miter;stroke-miterlimit:22.92560005;stroke-dasharray:none;stroke-opacity:1"
         id="path43"
         inkscape:connector-curvature="0" /><path
         d="M 1227.24,1880.54 691.988,1649.89 c -0.832,9.22 -1.285,18.55 -1.285,27.99 0,169.31 137.25,306.56 306.555,306.56 91.602,0 173.812,-40.2 229.982,-103.9 z M 997.258,2213.7 c 252.572,0 464.282,-174.76 520.912,-409.96 l -215.96,-94.43 -0.05,0.45 -220.94,-97.07 -530.013,-231.74 c -56.699,85 -89.769,187.1 -89.769,296.93 0,295.93 239.89,535.82 535.82,535.82 v 0"
         style="fill:#ffffff;fill-opacity:1;fill-rule:evenodd;stroke:none"
         id="path45"
         inkscape:connector-curvature="0" /><path
         d="M 1371.67,1294.59 C 1179.82,1112.5 926.016,1094.63 703.008,1230.02 l 126.008,191.57 c 126.89,-75.85 254.374,-63.55 382.444,37 l 160.21,-164 v 0"
         style="fill:#ffffff;fill-opacity:1;fill-rule:evenodd;stroke:none"
         id="path47"
         inkscape:connector-curvature="0" /><path
         d="m 1589.84,1427.22 -1.35,1013.27 h 191.97 v -985.91 c 0,-9.46 1.17,-17.79 13.58,-22.61 l 167,-64.95 -75.24,-195.63 -195.63,82.77 c -74.18,31.39 -100.2,76.87 -100.33,173.06 v 0"
         style="fill:#ffffff;fill-opacity:1;fill-rule:evenodd;stroke:none"
         id="path49"
         inkscape:connector-curvature="0" /><path
         d="m 2312.67,1444.26 c -71.96,55.95 -118.29,143.27 -118.29,241.48 0,87.31 36.65,166.01 95.33,221.73 l -123.99,200.95 c -124.64,-98.75 -204.68,-251.32 -204.68,-422.68 0,-184.7 92.92,-347.65 234.53,-444.8 l 117.1,203.32"
         style="fill:#449edc;fill-opacity:1;fill-rule:evenodd;stroke:none"
         id="path51"
         inkscape:connector-curvature="0" /><path
         d="m 2396.72,1973.55 c 32.31,11.62 67.14,17.99 103.46,17.99 130.93,0 242.58,-82.32 286.19,-198 l 237.59,19.85 c -57.35,236.12 -270.02,411.48 -523.78,411.48 -71.7,0 -140.07,-14.12 -202.65,-39.53 l 99.19,-211.79"
         style="fill:#f5f014;fill-opacity:1;fill-rule:evenodd;stroke:none"
         id="path53"
         inkscape:connector-curvature="0" /><path
         d="m 2805.6,1670.92 c -7.74,-162 -141.51,-290.98 -305.42,-290.98 -25.7,0 -50.63,3.22 -74.47,9.18 l -93.2,-215.79 c 52.79,-17.25 109.11,-26.72 167.67,-26.72 290.32,0 526.92,229.51 538.56,516.97 l -233.14,7.34"
         style="fill:#e32b23;fill-opacity:1;fill-rule:evenodd;stroke:none"
         id="path55"
         inkscape:connector-curvature="0" /></g></g></svg>