<?xml version="1.0" encoding="UTF-8"?>
<svg width="37px" height="34px" viewBox="0 0 37 34" version="1.1" xmlns="http://www.w3.org/2000/svg" xmlns:xlink="http://www.w3.org/1999/xlink">
    <!-- Generator: Sketch 51.2 (57519) - http://www.bohemiancoding.com/sketch -->
    <title>Combined Shape</title>
    <desc>Created with Sketch.</desc>
    <defs></defs>
    <g id="Symbols" stroke="none" stroke-width="1" fill="none" fill-rule="evenodd">
        <g id="ic_cat_games_geek_no_selected" transform="translate(-12.000000, -13.000000)" fill="#0083FF" stroke="#FFFFFF" stroke-width="0.3">
            <g id="Combined-Shape">
                <path d="M30.3041025,28.1982559 C31.1417783,28.1982559 31.8458115,28.7816348 32.0312021,29.5634609 L28.5770029,29.5634609 C28.7623936,28.7817031 29.4663584,28.1982559 30.3041025,28.1982559 M39.6723447,29.5634609 C44.264249,29.5634609 48.0000205,33.2993691 48.0000205,37.8912051 C48.0000205,42.4831094 44.2641807,46.2188809 39.6723447,46.2188809 C36.7072568,46.2188809 33.9960557,44.6599453 32.4993271,42.1232656 L28.5007139,42.1232656 C27.0039854,44.6599453 24.2927158,46.2188809 21.3276279,46.2188809 C16.735792,46.2188809 13.0000205,42.4831094 13.0000205,37.8912051 C13.0000205,33.2993691 16.735792,29.5635977 21.3276279,29.5635977 L27.1917686,29.5635977 C27.3711436,28.1936074 28.4363193,27.0989004 29.7921592,26.8755703 L29.7921592,23.3340762 C29.7921592,23.0425234 29.5548838,22.8051797 29.2633311,22.8051797 L26.7714951,22.8051797 C25.7271006,22.8051797 24.8774619,21.955541 24.8774619,20.9111465 L24.8774619,17.3899551 C24.8774619,17.0129531 25.1830967,16.7073184 25.5600986,16.7073184 C25.9370322,16.7073184 26.242667,17.0129531 26.242667,17.3899551 L26.242667,20.9110098 C26.242667,21.2026309 26.4799424,21.4399062 26.7714951,21.4399062 L29.2633311,21.4399062 C30.3077256,21.4399062 31.1573643,22.2895449 31.1573643,23.3339395 L31.1573643,26.9518594 C32.3477061,27.2885293 33.252374,28.3107754 33.4164365,29.5634609 L34.1949131,29.5634609 C34.5717783,29.5634609 34.8774814,29.8690273 34.8774814,30.2460293 C34.8774814,30.6230312 34.5717783,30.9285977 34.1949131,30.9285977 L32.7614854,30.9285977 L27.8467881,30.9285977 L21.3276279,30.9285977 C17.4884971,30.9285977 14.3651572,34.0520059 14.3651572,37.8910684 C14.3651572,41.7301992 17.4884971,44.8536074 21.3276279,44.8536074 C23.9236436,44.8536074 26.2870322,43.4240762 27.4954893,41.123168 C27.6135459,40.8986758 27.8461729,40.7579238 28.0998545,40.7579238 L32.9001182,40.7579238 C33.1537998,40.7579238 33.3864951,40.8986074 33.5044834,41.123168 C34.7130088,43.4241445 37.0763975,44.8536074 39.6723447,44.8536074 C43.5114756,44.8536074 46.6348154,41.7301992 46.6348154,37.8910684 C46.6348154,34.0520059 43.5114756,30.9285977 39.6723447,30.9285977 L39.120958,30.9285977 C38.7440244,30.9285977 38.4383896,30.6230312 38.4383896,30.2460293 C38.4383896,29.8690273 38.7440244,29.5634609 39.120958,29.5634609 L39.6723447,29.5634609 Z M36.5498047,30.9290215 C36.370293,30.9290215 36.1941992,30.8560137 36.0671875,30.7283184 C35.9401758,30.601375 35.8672363,30.4259648 35.8672363,30.2464531 C35.8672363,30.0662578 35.9402441,29.8907793 36.0671875,29.7631523 C36.1941992,29.636209 36.370293,29.5638164 36.5498047,29.5638164 C36.7293848,29.5638164 36.9054785,29.636209 37.0323535,29.7631523 C37.1593652,29.8907793 37.232373,30.0662578 37.232373,30.2464531 C37.232373,30.4259648 37.1592969,30.601375 37.0323535,30.7283184 C36.9054785,30.8560137 36.7293848,30.9290215 36.5498047,30.9290215 Z M21.3279766,42.4048584 C20.1988164,42.4048584 19.2802031,41.4861768 19.2802031,40.357085 L19.2802031,39.9475439 L18.8706621,39.9475439 C17.741502,39.9475439 16.8228203,39.0288623 16.8228203,37.8997705 C16.8228203,36.7706104 17.741502,35.8519971 18.8706621,35.8519971 L19.2802031,35.8519971 L19.2802031,35.4423877 C19.2802031,34.3132959 20.1988164,33.3946143 21.3279766,33.3946143 C22.4571367,33.3946143 23.37575,34.3132959 23.37575,35.4423877 L23.37575,35.8519971 L23.7853594,35.8519971 C24.9144512,35.8519971 25.8331328,36.7706104 25.8331328,37.8997705 C25.8331328,39.0288623 24.9144512,39.9475439 23.7853594,39.9475439 L23.37575,39.9475439 L23.37575,40.357085 C23.37575,41.4861768 22.4571367,42.4048584 21.3279766,42.4048584 Z M18.8706621,38.5823389 L19.9628398,38.5823389 C20.3397051,38.5823389 20.6454082,38.8879736 20.6454082,39.2649072 L20.6454082,40.357085 C20.6454082,40.7334717 20.9515898,41.0396533 21.3279766,41.0396533 C21.7043633,41.0396533 22.0106133,40.7334717 22.0106133,40.357085 L22.0106133,39.2649072 C22.0106133,38.8879736 22.316248,38.5823389 22.6931816,38.5823389 L23.7853594,38.5823389 C24.1616777,38.5823389 24.4679277,38.2761572 24.4679277,37.8997705 C24.4679277,37.5233838 24.1616777,37.2171338 23.7853594,37.2171338 L22.6931816,37.2171338 C22.316248,37.2171338 22.0106133,36.9115674 22.0106133,36.5345654 L22.0106133,35.4423877 C22.0106133,35.0660693 21.7043633,34.7598193 21.3279766,34.7598193 C20.9515898,34.7598193 20.6454082,35.0660693 20.6454082,35.4423877 L20.6454082,36.5345654 C20.6454082,36.9115674 20.3397051,37.2171338 19.9628398,37.2171338 L18.8706621,37.2171338 C18.4942754,37.2171338 18.1880254,37.5233838 18.1880254,37.8997705 C18.1880254,38.2761572 18.4942754,38.5823389 18.8706621,38.5823389 Z M39.5533447,36.8739219 C38.4241162,36.8739219 37.5055029,35.9553086 37.5055029,34.8261484 C37.5055029,33.6970566 38.4241162,32.778375 39.5533447,32.778375 C40.6825049,32.778375 41.6011182,33.6970566 41.6011182,34.8261484 C41.6011182,35.9553086 40.6825049,36.8739219 39.5533447,36.8739219 Z M39.5533447,34.1435801 C39.1768896,34.1435801 38.870708,34.4497617 38.870708,34.8261484 C38.870708,35.2025352 39.1768896,35.5087852 39.5533447,35.5087852 C39.9297314,35.5087852 40.2358447,35.2025352 40.2358447,34.8261484 C40.2358447,34.4497617 39.9297314,34.1435801 39.5533447,34.1435801 Z M39.5533447,38.9255645 C40.6825049,38.9255645 41.6011182,39.8441777 41.6011182,40.9733379 C41.6011182,42.102498 40.6825049,43.0211113 39.5533447,43.0211113 C38.4241162,43.0211113 37.5055029,42.102498 37.5055029,40.9733379 C37.5055029,39.8441777 38.4241162,38.9255645 39.5533447,38.9255645 Z M39.5533447,41.6559063 C39.9297314,41.6559063 40.2358447,41.3497246 40.2358447,40.9733379 C40.2358447,40.5969512 39.9297314,40.2907012 39.5533447,40.2907012 C39.1768896,40.2907012 38.870708,40.5969512 38.870708,40.9733379 C38.870708,41.3497246 39.1768896,41.6559063 39.5533447,41.6559063 Z M44.674665,37.8997432 C44.674665,39.0289033 43.7560518,39.9475166 42.6268916,39.9475166 C41.4977314,39.9475166 40.5791182,39.0289033 40.5791182,37.8997432 C40.5791182,36.770583 41.4977314,35.8519697 42.6268916,35.8519697 C43.7560518,35.8519697 44.674665,36.770583 44.674665,37.8997432 Z M41.9443232,37.8997432 C41.9443232,38.2761299 42.2505049,38.5823115 42.6268916,38.5823115 C43.0032783,38.5823115 43.3095283,38.2761299 43.3095283,37.8997432 C43.3095283,37.5233564 43.0032783,37.2171748 42.6268916,37.2171748 C42.2505049,37.2171748 41.9443232,37.5233564 41.9443232,37.8997432 Z M36.479709,39.9474893 C35.3505488,39.9474893 34.4319355,39.028876 34.4319355,37.8997158 C34.4319355,36.770624 35.3505488,35.8519424 36.479709,35.8519424 C37.6088691,35.8519424 38.5274824,36.770624 38.5274824,37.8997158 C38.5274824,39.028876 37.6088691,39.9474893 36.479709,39.9474893 Z M36.479709,37.2171475 C36.1033223,37.2171475 35.7971406,37.5233291 35.7971406,37.8997158 C35.7971406,38.2761025 36.1033223,38.5823525 36.479709,38.5823525 C36.8560957,38.5823525 37.1622773,38.2761025 37.1622773,37.8997158 C37.1622773,37.5233291 36.8560957,37.2171475 36.479709,37.2171475 Z M25.5600645,15.3652187 C25.3805527,15.3652187 25.2043906,15.2921426 25.0774473,15.1651992 C24.9504355,15.0375723 24.8774961,14.8621621 24.8774961,14.6826504 C24.8774961,14.5023867 24.9505039,14.3269766 25.0774473,14.2000332 C25.2043906,14.0724062 25.3805527,14.0000137 25.5600645,14.0000137 C25.7395762,14.0000137 25.9157383,14.0724062 26.0426133,14.2000332 C26.169625,14.3269766 26.2426328,14.5023867 26.2426328,14.6826504 C26.2426328,14.8621621 26.1695566,15.0375723 26.0426133,15.1651992 C25.9157383,15.2922109 25.7395762,15.3652187 25.5600645,15.3652187 Z"></path>
            </g>
        </g>
    </g>
</svg>