<?xml version="1.0" encoding="UTF-8"?>
<svg width="32px" height="31px" viewBox="0 0 32 31" version="1.1" xmlns="http://www.w3.org/2000/svg" xmlns:xlink="http://www.w3.org/1999/xlink">
    <!-- Generator: Sketch 51.2 (57519) - http://www.bohemiancoding.com/sketch -->
    <title>Combined Shape</title>
    <desc>Created with Sketch.</desc>
    <defs></defs>
    <g id="Symbols" stroke="none" stroke-width="1" fill="none" fill-rule="evenodd">
        <g id="ic_cat_arte_cultura_no_selected" transform="translate(-14.000000, -15.000000)" fill="#0083FF" stroke="#0083FF" stroke-width="0.1">
            <g id="Combined-Shape">
                <path d="M36.5435039,36.6736699 C36.5940703,36.6627715 36.6462773,36.6610723 36.6974883,36.6682207 C36.7653398,36.6778301 38.3804766,36.9215215 40.1430352,38.4095684 C40.3284844,38.5661309 40.3518633,38.8433965 40.1953008,39.0288457 C40.0387969,39.2142949 39.7615898,39.2378496 39.5760234,39.0812285 C38.2168242,37.9337285 36.952957,37.6154473 36.6439922,37.5516973 C34.9652227,37.938709 33.7659844,39.0201152 33.7538555,39.0311309 C33.574793,39.1945488 33.2969414,39.1825371 33.1331719,39.0036504 C32.9694023,38.8248809 32.9811797,38.5474395 33.1597148,38.3834355 C33.2167852,38.3310527 34.5795,37.094959 36.5435039,36.6736699 Z M26.394709,27.7248164 C26.5801582,27.5683125 26.8574238,27.5916914 27.0140449,27.7771406 C27.1705488,27.9625898 27.1471699,28.2399141 26.9617207,28.3964766 C25.1991621,29.8844063 23.584084,30.1280977 23.5161738,30.1377656 C23.495666,30.1407539 23.475041,30.1421602 23.4543574,30.1421602 C23.4234199,30.1421602 23.392541,30.1389375 23.3621895,30.132375 C21.3982441,29.7110859 20.0354121,28.4750508 19.9783418,28.422668 C19.7995723,28.2584883 19.7877949,27.9804023 19.9519746,27.8016914 C20.1161543,27.6229805 20.3940645,27.6110859 20.5727754,27.775207 C20.5985566,27.7985859 21.7938691,28.8696211 23.4628535,29.2543477 C23.7693574,29.1910664 25.0342793,28.8733711 26.394709,27.7248164 Z M40.8031289,34.0275 C40.5768984,34.0683984 40.3497891,34.0884375 40.125375,34.0884961 C39.2005313,34.0884961 38.3189883,33.7491211 37.7208047,33.1396289 C37.5280898,32.9433398 37.4756484,32.6539453 37.5872695,32.4024023 C38.0175234,31.4323242 39.0040664,30.699375 40.1619375,30.4895508 C41.3199258,30.2797266 42.5009414,30.6199219 43.2442617,31.3774805 C43.436918,31.5736523 43.4893594,31.8631055 43.3777969,32.1145898 C42.947543,33.0847266 41.9609414,33.8176758 40.8031289,34.0275 Z M40.3187344,31.3544531 C39.4990664,31.5029883 38.7991641,31.9842187 38.4557461,32.6257031 C39.002543,33.1060547 39.8268398,33.3110742 40.646332,33.1625977 C41.4658828,33.0141211 42.1657266,32.532832 42.5092617,31.8912891 C41.9625234,31.4110547 41.1383438,31.2059766 40.3187344,31.3544531 Z M43.7917148,24.3793945 C44.3426719,24.0946289 44.9999766,24.4935937 44.999918,25.1143945 L44.999918,36.697207 C44.999918,40.4428711 42.4997812,43.6884375 39.0054844,44.7186914 C38.9958164,44.7215625 38.986207,44.7234961 38.9767148,44.7245508 C38.9475937,44.7305859 38.9175937,44.7338086 38.8867148,44.7338086 C38.6435508,44.7338086 38.4464414,44.5366992 38.4464414,44.2934766 C38.4464414,44.0802539 38.5979648,43.9025391 38.7991758,43.8619336 C41.903707,42.9264258 44.1210117,40.0341797 44.1210117,36.697207 L44.1210117,25.1983594 C40.3909922,27.1013672 35.9129062,27.5536523 31.7238047,26.2460156 C31.7238047,27.5971875 31.8197812,28.9185937 31.0798008,30.6871289 C31.6973789,30.4378125 32.4099375,30.3619336 33.1141758,30.4895508 C34.2721055,30.699375 35.2586484,31.4323828 35.6889609,32.4024609 C35.8005234,32.6539453 35.748082,32.9433398 35.5553086,33.1396875 C34.8119883,33.8970703 33.6309727,34.237207 32.4731016,34.0275 C31.4536875,33.8427539 30.5669883,33.2525977 30.0759141,32.4519141 C29.8002305,32.8241602 29.4926133,33.1747852 29.1551133,33.4993359 L29.1551133,36.697207 C29.1551133,40.0191797 31.3522031,42.9014648 34.4347617,43.850332 C34.4428477,43.852793 34.4503477,43.8560156 34.4575547,43.8598242 C34.6325156,43.9180664 34.7588437,44.082832 34.7588437,44.2774219 C34.7588437,44.5205859 34.5617344,44.7176953 34.3185117,44.7176953 C34.2525352,44.7176953 34.1900742,44.7028125 34.1338828,44.6767383 C30.7113047,43.6028906 28.2761484,40.3937695 28.2761484,36.697207 L28.2761484,34.2309375 C26.8956797,35.237168 25.1970469,35.8318945 23.3618906,35.8318945 C18.7511484,35.8318945 14.9999766,32.0807812 14.9999766,27.4699805 L14.9999766,15.999375 C14.9999766,15.3300586 15.7067344,14.8979297 16.3053867,15.2019727 C17.7873984,15.954668 19.3572422,16.4585156 20.9887266,16.7063086 C20.992125,16.7068359 20.9952305,16.7080078 20.9985703,16.7086523 C21.2370469,16.7141016 21.4287656,16.9086914 21.4287656,17.148457 C21.4287656,17.3916797 21.2315977,17.5887891 20.9884336,17.5887891 C20.9658164,17.5887891 20.9437852,17.5865625 20.9221055,17.5832812 C20.9144297,17.5831055 20.9067539,17.5829297 20.8988437,17.5817578 C19.1597812,17.3223047 17.4864609,16.7876953 15.9073594,15.9856055 C15.9023203,15.9830273 15.8960508,15.9798633 15.8862656,15.9858398 C15.8789414,15.990293 15.8789414,15.9936914 15.8789414,15.999375 L15.8789414,27.4699805 C15.8789414,31.5960937 19.2358359,34.9529297 23.3618906,34.9529297 C26.0410898,34.9529297 28.3955039,33.5372461 29.7176133,31.4149805 C31.0165195,29.3193164 30.8447812,27.6075586 30.8447812,25.636582 L30.8447812,15.9711328 C29.3160117,16.7516016 27.6963047,17.2807617 26.0126133,17.5519922 C25.9797422,17.5597852 25.945582,17.5643555 25.9103086,17.5643555 C25.6671445,17.5643555 25.4699766,17.3672461 25.4699766,17.124082 C25.4699766,16.9075781 25.6263047,16.7280469 25.8321445,16.6910742 C25.8322031,16.6910742 25.8323203,16.6910156 25.8323789,16.6910156 C27.4660898,16.432207 29.0362266,15.9166992 30.515543,15.152168 C31.0667344,14.8675195 31.7238047,15.2663672 31.7238047,15.8872266 L31.7238047,25.3224609 C35.5778086,26.6009766 39.9557578,26.3617969 43.7917148,24.3793945 Z M32.9574375,31.3544531 C32.1379453,31.2060352 31.3136484,31.4109961 30.7669102,31.8912891 C31.1103867,32.532832 31.8102891,33.0141211 32.6298398,33.1625977 C33.4494492,33.31125 34.2736875,33.1059961 34.8204258,32.6257031 C34.4769492,31.9842188 33.7769883,31.5029297 32.9574375,31.3544531 Z M16.7557324,22.1502422 C18.3570996,20.5182891 21.4836035,21.0805547 22.4127832,23.1752812 C22.5243457,23.4267656 22.4718457,23.7161016 22.2791895,23.9124492 C20.6746582,25.5475664 17.5511426,24.9817266 16.6221387,22.8874102 C16.5106348,22.6358672 16.5630762,22.3465312 16.7557324,22.1502422 Z M21.5441895,23.3985234 C20.8088379,22.0249102 18.666416,21.6312187 17.4906738,22.6640508 C18.2276074,24.0405937 20.370498,24.4297148 21.5441895,23.3985234 Z M30.1016367,22.8873691 C29.1765,24.9728965 26.0570273,25.5554941 24.4445273,23.9124082 C24.2518711,23.7160605 24.1994297,23.4267246 24.3109922,23.1752402 C25.2380625,21.085377 28.3629258,20.514791 29.968043,22.1502012 C30.1606406,22.3465488 30.213082,22.6358262 30.1016367,22.8873105 L30.1016367,22.8873691 Z M29.2331016,22.6640684 C28.0575937,21.6314707 25.9152891,22.0244004 25.1795859,23.398541 C26.3529258,24.4291465 28.4958164,24.0411387 29.2331016,22.6640684 Z M36.5744004,44.1105 C36.8175645,44.1105 37.0147324,44.3076094 37.0147324,44.550832 C37.0147324,44.7939961 36.8175645,44.9911641 36.5744004,44.9911641 C36.3312363,44.9911641 36.1340098,44.7939961 36.1340098,44.550832 C36.1340098,44.3076094 36.3312363,44.1105 36.5744004,44.1105 Z M23.4493711,17.7450527 C23.206207,17.7450527 23.0090391,17.5479434 23.0090391,17.3047207 C23.0090391,17.0615566 23.206207,16.8643887 23.4493711,16.8643887 C23.6925352,16.8643887 23.8897031,17.0615566 23.8897031,17.3047207 C23.8897031,17.5479434 23.6925352,17.7450527 23.4493711,17.7450527 Z"></path>
            </g>
        </g>
    </g>
</svg>