<?xml version="1.0" encoding="UTF-8"?>
<svg width="35px" height="22px" viewBox="0 0 35 22" version="1.1" xmlns="http://www.w3.org/2000/svg" xmlns:xlink="http://www.w3.org/1999/xlink">
    <!-- Generator: Sketch 51.2 (57519) - http://www.bohemiancoding.com/sketch -->
    <title>Combined Shape</title>
    <desc>Created with Sketch.</desc>
    <defs></defs>
    <g id="Symbols" stroke="none" stroke-width="1" fill="none" fill-rule="evenodd">
        <g id="ic_cat_moda_beleza_no_selected" transform="translate(-13.000000, -19.000000)" fill="#0083FF">
            <g id="Combined-Shape">
                <path d="M22.0614384,29.2059795 C21.7801554,27.9366906 21.6750528,26.7447405 21.745566,25.6454223 C21.7459252,25.6233035 21.7472595,25.6012874 21.750544,25.5791173 C21.7830293,25.1208328 21.8453314,24.6784062 21.9394003,24.2538387 C22.2028754,23.0654296 22.7059619,22.0121452 23.4348035,21.1234941 C24.680588,19.6043299 26.1522815,19.0986261 26.2142757,19.077893 C26.3968196,19.0167199 26.5983006,19.0629076 26.7359912,19.1974677 C31.0470469,23.4106569 32.4237478,27.3018152 33.4290484,30.1430249 C33.7069443,30.9285235 33.969393,31.6704516 34.2563211,32.3148724 C35.2629047,34.5761701 37.135456,35.3784501 38.433176,35.3783988 C39.1889604,35.3783475 40.1039384,35.0855689 40.1955953,34.2604516 C40.2109912,34.1225044 40.2814531,33.9967713 40.3910718,33.9117346 C40.5006393,33.8266979 40.6400748,33.7896965 40.7774062,33.8089413 C41.7645396,33.9481716 43.5100748,34.541324 44.9277287,35.2193079 C46.9133886,36.1690806 47.9459912,37.0993519 47.9969003,37.9844619 C48.0238944,38.4540367 47.8732199,38.8661848 47.5489824,39.2095132 C46.6122449,40.2017273 44.1534179,40.606434 39.0621496,40.606434 C35.9870762,40.606434 33.979349,40.1230543 32.5524062,39.039132 C31.1971569,38.0096085 30.463132,36.5432522 29.5337845,34.6867126 C29.1026994,33.8256202 28.6228607,32.8670718 28.0164677,31.8286188 C27.4526701,32.6131422 27.0333886,34.121478 26.8156393,36.1835015 C26.6025601,38.2020059 26.6551114,40.0592126 26.655676,40.0776877 C26.6598328,40.2164047 26.6076408,40.3509135 26.5110059,40.4506276 C26.414371,40.5501877 26.2815044,40.606434 26.1427361,40.606434 L24.9688504,40.606434 C24.5638871,40.606434 24.2341584,40.5878563 23.9829487,40.3540953 C23.7053607,40.0958035 23.6905806,39.7217346 23.6775968,39.3915953 C23.5855293,37.0578856 23.041849,33.6309648 22.0614384,29.2059795 Z M22.7473255,26.3983328 C22.7553827,27.204 22.8602801,28.0662214 23.0636085,28.984022 C24.0571056,33.4685381 24.6087405,36.9565293 24.7031173,39.3512067 C24.7071202,39.4530249 24.7120469,39.5242053 24.7169736,39.5738827 C24.7713724,39.5774751 24.8514311,39.5799897 24.9687991,39.5799897 L25.6225601,39.5799897 C25.6204047,38.8703416 25.6415997,37.5333622 25.7937111,36.0866613 C25.9282199,34.8077243 26.1353974,33.7330396 26.4133959,32.8665587 C26.1049648,32.4070938 25.7599428,31.9495792 25.4289824,31.5193666 C25.2561891,31.2946891 25.2982199,30.9724531 25.5228974,30.7996598 C25.7476261,30.6269179 26.0698109,30.668846 26.2426041,30.8935748 C26.4516804,31.165415 26.6663504,31.4484428 26.8758886,31.7376804 C27.0531979,31.4009721 27.2489824,31.1195352 27.4625748,30.8929589 C26.2687258,28.8786114 25.1583739,27.6972331 23.6918123,26.8651877 C23.3963651,26.6975777 23.0837258,26.5431056 22.7473255,26.3983328 Z M24.1982346,25.9724311 C25.8992757,26.937651 27.2034619,28.3620279 28.5576848,30.7342273 C29.3497522,32.0263534 29.9351041,33.1955176 30.451585,34.2272991 C32.23561,37.7911408 33.1310352,39.5799897 39.0621496,39.5799897 C41.9492903,39.5799897 45.892846,39.4685235 46.8026921,38.5049457 C46.9305293,38.3695132 46.9827214,38.2273065 46.9721496,38.0434282 C46.9565997,37.772871 46.4152287,37.0686628 44.4848402,36.145371 C43.2414164,35.5506789 41.9233226,35.1058915 41.082912,34.9118006 C40.7217757,35.8234428 39.7239164,36.4048431 38.4332273,36.4048944 L38.433022,36.4048944 C36.827846,36.4048944 34.5252874,35.4430616 33.3186085,32.7322551 C33.0153094,32.0509355 32.7462405,31.2905323 32.4614164,30.4854809 C31.4557566,27.6430909 30.2090484,24.1194839 26.259437,20.1696158 C25.8309692,20.371456 24.9844003,20.8525777 24.2284619,21.7743299 C23.4272082,22.7514047 22.9505513,23.9341173 22.799261,25.3104076 C23.3068636,25.5105029 23.7679707,25.7283548 24.1982346,25.9724311 Z M38.6971591,37.6187683 C38.7005462,37.6187683 38.7040359,37.618871 38.7073717,37.6189223 C39.7375623,37.6390909 40.7506122,37.6283138 41.7181415,37.5870015 C42.0017852,37.575044 42.2407295,37.7947434 42.2527383,38.0778739 C42.2648497,38.3610557 42.0450477,38.6004106 41.7619172,38.6124707 C41.0956855,38.6409018 40.4088746,38.6551173 39.7098497,38.6551173 C39.3716019,38.6551173 39.0302749,38.6517815 38.6874597,38.64511 C38.4040213,38.6396701 38.1787793,38.4053959 38.1843218,38.1220088 C38.1897104,37.8420601 38.4183908,37.6187683 38.6971591,37.6187683 Z M25.2219692,29.7214802 L25.230283,29.7293834 C25.4370499,29.9232177 25.4475191,30.2479685 25.2536848,30.4547867 C25.1526364,30.5626092 25.0161261,30.6170081 24.879154,30.6170081 C24.7534208,30.6170081 24.6272771,30.5710257 24.5282815,30.4781884 L24.5087287,30.4596107 C24.3048871,30.2626459 24.2993446,29.9377412 24.4963094,29.7338996 C24.6932229,29.5301092 25.0181276,29.5245667 25.2219692,29.7214802 Z M37.2049326,37.5162317 L37.2285909,37.5173094 C37.5117727,37.5302419 37.730805,37.7702639 37.7178724,38.0533944 C37.7052991,38.3285704 37.4782097,38.5432405 37.205651,38.5432405 C37.1976965,38.5432405 37.1897419,38.5429839 37.1817874,38.5426246 L37.1524839,38.5413416 C36.8693534,38.5268182 36.6517067,38.2855645 36.6661789,38.0025367 C36.680651,37.7194575 36.9216994,37.5000147 37.2049326,37.5162317 Z M19.8759809,30.759574 C20.3937962,30.8112529 20.7995806,31.2493174 20.7995806,31.7806298 L20.7995806,39.0670447 C20.7995806,39.9158717 20.1090235,40.6064289 19.2601965,40.6064289 L14.5394047,40.6064289 C13.6905777,40.6064289 13.0000205,39.9158717 13.0000205,39.0670447 L13.0000205,31.7806298 C13.0000205,31.2492661 13.405805,30.8112016 13.9236202,30.7595227 L13.9236202,28.4965315 C13.9236202,28.0766342 14.1773446,27.7152925 14.5394047,27.5565609 L14.5394047,23.5061063 C14.5394047,22.959706 14.8192507,22.4659597 15.2880557,22.1853952 C15.756912,21.9046254 16.3242507,21.8912309 16.8058343,22.1492661 L18.4478578,23.0290902 C18.9489428,23.2975946 19.2601965,23.8175139 19.2601965,24.3859304 L19.2601965,27.5566122 C19.6222053,27.7153438 19.8759809,28.0766855 19.8759809,28.4965828 L19.8759809,30.759574 Z M19.7733416,39.067096 L19.7733416,31.7806811 L14.0262595,31.7806811 L14.0262595,39.067096 C14.0262595,39.3500726 14.2564795,39.5802412 14.5394047,39.5802412 L17.3103065,39.5802412 L17.3103065,35.6804611 C17.3103065,35.397074 17.5400132,35.167316 17.8234516,35.167316 C18.1068387,35.167316 18.3365455,35.397074 18.3365455,35.6804611 L18.3365455,39.5802412 L19.2601965,39.5802412 C19.543173,39.5802412 19.7733416,39.3500726 19.7733416,39.067096 Z M18.119828,33.4441297 L18.1281418,33.452033 C18.3349087,33.6458673 18.3453779,33.970618 18.1515436,34.1774362 C18.0504952,34.2852588 17.9139849,34.3396576 17.7770128,34.3396576 C17.6512796,34.3396576 17.5251359,34.2936752 17.4261403,34.2008379 L17.4065876,34.1822602 C17.2027459,33.9852954 17.1972034,33.6603907 17.3941682,33.4565491 C17.5910817,33.2527588 17.9159864,33.2472162 18.119828,33.4441297 Z M15.5656437,23.5061063 L15.5656437,27.4702925 L18.2338548,27.4702925 L18.2338548,24.385879 C18.2338548,24.1964582 18.1301378,24.0231004 17.9631437,23.9336503 L16.3210689,23.0538262 C16.0897713,22.9298893 15.8901891,23.0209304 15.8152111,23.065835 C15.7401818,23.1107911 15.5656437,23.243555 15.5656437,23.5061063 Z M14.9499106,28.4965828 L14.9499106,30.7543908 L18.8496906,30.7543908 L18.8496906,28.4965828 L18.7470513,28.4965828 L15.0525499,28.4965828 L14.9499106,28.4965828 Z"></path>
            </g>
        </g>
    </g>
</svg>