<?xml version="1.0" encoding="UTF-8"?>
<svg width="30px" height="30px" viewBox="0 0 30 30" version="1.1" xmlns="http://www.w3.org/2000/svg" xmlns:xlink="http://www.w3.org/1999/xlink">
    <!-- Generator: Sketch 51.2 (57519) - http://www.bohemiancoding.com/sketch -->
    <title>Fill 1</title>
    <desc>Created with Sketch.</desc>
    <defs></defs>
    <g id="Symbols" stroke="none" stroke-width="1" fill="none" fill-rule="evenodd">
        <g id="ic_cat_infantil_no_selected" transform="translate(-15.000000, -15.000000)" fill="#0083FF" stroke="#FFFFFF" stroke-width="0.2">
            <g id="Fill-1">
                <path d="M42.88,43.552 L17.12,43.552 L17.12,42.824 C17.12,42.515216 17.371216,42.264 17.68,42.264 L19.917648,42.264 C19.9192907,42.2640747 22.1935413,42.2640747 26.7404,42.264 C27.049632,42.264 27.3004,42.013176 27.3004,41.704 C27.3004,41.394768 27.049632,41.144 26.7404,41.144 L20.979184,41.144 C21.62912,40.437616 22.5492,40.024 23.54432,40.024 L28.88,40.024 L31.12,40.024 L36.45568,40.024 C37.4508,40.024 38.370824,40.437616 39.020816,41.144 L33.21648,41.144 C32.907248,41.144 32.65648,41.394768 32.65648,41.704 C32.65648,42.013176 32.907248,42.264 33.21648,42.264 L40.078824,42.264 C40.08028,42.2640747 40.8273387,42.2640747 42.32,42.264 C42.628784,42.264 42.88,42.515216 42.88,42.824 L42.88,43.552 Z M30.56,27.596648 L30.56,38.904 L29.44,38.904 L29.44,27.596648 C29.62312,27.63036 29.80988,27.648 30,27.648 C30.19012,27.648 30.376936,27.63036 30.56,27.596648 Z M28.121928,25.128 L31.878128,25.128 C31.726088,25.640624 31.368528,26.075128 30.86996,26.323768 C30.59836,26.459232 30.305648,26.528 30,26.528 C29.694352,26.528 29.40164,26.459232 29.129928,26.323656 C28.631472,26.075128 28.273968,25.640624 28.121928,25.128 Z M27.087944,24.008 L23.882896,24.008 L28.687192,19.617488 L27.087944,24.008 Z M24.96,26.528 C24.0738,26.528 23.323512,25.93664 23.081928,25.128 L26.838016,25.128 C26.596488,25.93664 25.846144,26.528 24.96,26.528 Z M26.08,34.256 C26.08,34.405408 26.021704,34.546024 25.915808,34.651808 C25.809968,34.757704 25.669408,34.816 25.52,34.816 L24.4,34.816 C24.091216,34.816 23.84,34.564784 23.84,34.256 C23.84,34.106592 23.898296,33.965976 24.004192,33.860192 C24.110032,33.754296 24.250592,33.696 24.4,33.696 L25.52,33.696 C25.828784,33.696 26.08,33.947216 26.08,34.256 Z M22.222664,24.008 L19.602648,24.008 L26.06936,20.4926 L22.222664,24.008 Z M19.92,26.528 C19.033856,26.528 18.283512,25.93664 18.041928,25.128 L21.798016,25.128 C21.556488,25.93664 20.806144,26.528 19.92,26.528 Z M20.48,35.936 C20.788784,35.936 21.04,36.187216 21.04,36.496 C21.04,36.645408 20.981704,36.786024 20.875808,36.891808 C20.770024,36.997704 20.629408,37.056 20.48,37.056 L19.36,37.056 C19.051216,37.056 18.8,36.804784 18.8,36.496 C18.8,36.346592 18.858296,36.205976 18.964192,36.100192 C19.070032,35.994296 19.210592,35.936 19.36,35.936 L20.48,35.936 Z M29.973232,19.359384 C29.982192,19.359552 29.99104,19.36 30,19.36 C30.00896,19.36 30.017808,19.359552 30.026768,19.359384 L31.72004,24.008 L28.27996,24.008 L29.973232,19.359384 Z M30,17.12 C30.308784,17.12 30.56,17.371216 30.56,17.68 C30.56,18.06976 30.169288,18.342144 29.802824,18.204272 C29.594672,18.126656 29.44,17.920688 29.44,17.68 C29.44,17.371216 29.691216,17.12 30,17.12 Z M36.121472,24.008 L32.912056,24.008 L31.300488,19.583664 L36.121472,24.008 Z M40.397352,24.008 L37.778008,24.008 L33.971856,20.515 L40.397352,24.008 Z M40.08,26.528 C39.193856,26.528 38.443512,25.93664 38.201928,25.128 L41.958016,25.128 C41.716488,25.93664 40.966144,26.528 40.08,26.528 Z M40.64,35.936 C40.948784,35.936 41.2,36.187216 41.2,36.496 C41.2,36.645408 41.141704,36.786024 41.035808,36.891808 C40.929968,36.997704 40.789408,37.056 40.64,37.056 L39.52,37.056 C39.211216,37.056 38.96,36.804784 38.96,36.496 C38.96,36.346592 39.018296,36.205976 39.124192,36.100192 C39.230032,35.994296 39.370592,35.936 39.52,35.936 L40.64,35.936 Z M35.04,26.528 C34.153856,26.528 33.403512,25.93664 33.161928,25.128 L36.918016,25.128 C36.676488,25.93664 35.926144,26.528 35.04,26.528 Z M36.16,34.256 C36.16,34.405408 36.101704,34.546024 35.995808,34.651808 C35.889968,34.757704 35.749408,34.816 35.6,34.816 L34.48,34.816 C34.171216,34.816 33.92,34.564784 33.92,34.256 C33.92,34.106592 33.978296,33.965976 34.084192,33.860192 C34.190032,33.754296 34.330592,33.696 34.48,33.696 L35.6,33.696 C35.908784,33.696 36.16,33.947216 36.16,34.256 Z M40.410848,41.144 L42.32,41.144 C43.246352,41.144 44,41.897648 44,42.824 L44,44.112 C44,44.421176 43.749232,44.672 43.44,44.672 L16.56,44.672 C16.250768,44.672 16,44.421176 16,44.112 L16,42.824 C16,41.897648 16.753648,41.144 17.68,41.144 L19.589152,41.144 C20.419912,39.753912 21.90492,38.904 23.54432,38.904 L28.32,38.904 L28.32,27.148368 C27.985064,26.930976 27.70092,26.6554 27.477872,26.338552 C27.022536,26.984176 26.325952,27.447296 25.52,27.596032 L25.52,32.576 C26.446352,32.576 27.2,33.329648 27.2,34.256 C27.2,34.70456 27.025224,35.126408 26.707816,35.443816 C26.390408,35.761224 25.96856,35.936 25.52,35.936 L24.4,35.936 C23.473648,35.936 22.72,35.182352 22.72,34.256 C22.72,33.80744 22.894776,33.385592 23.212184,33.068184 C23.529592,32.750776 23.95144,32.576 24.4,32.576 L24.4,27.596088 C23.592816,27.447128 22.89528,26.982776 22.44,26.33564 C21.966856,27.008144 21.23236,27.484088 20.3848,27.612944 L20.3848,34.816 L20.48,34.816 C21.406352,34.816 22.16,35.569648 22.16,36.496 C22.16,36.94456 21.985224,37.366408 21.667816,37.683816 C21.350408,38.001224 20.92856,38.176 20.48,38.176 L19.36,38.176 C18.433648,38.176 17.68,37.422352 17.68,36.496 C17.68,36.04744 17.854776,35.625592 18.172184,35.308184 C18.467024,35.013344 18.852024,34.84176 19.2648,34.818856 L19.2648,27.577104 C17.880256,27.27588 16.84,26.041416 16.84,24.567608 C16.840112,24.366176 16.950432,24.177904 17.134392,24.074976 L28.347664,17.979264 C28.3298,17.880872 28.32,17.7808 28.32,17.68 C28.32,16.753648 29.073648,16 30,16 C30.926352,16 31.68,16.753648 31.68,17.68 C31.68,17.7808 31.6702,17.880872 31.652392,17.979264 C39.131192,22.0450507 42.871432,24.0784107 42.873112,24.079344 C43.053824,24.180256 43.16,24.371328 43.16,24.568 C43.16,26.108336 42.023368,27.38816 40.5448,27.612944 L40.5448,34.816 L40.64,34.816 C41.566352,34.816 42.32,35.569648 42.32,36.496 C42.32,36.94456 42.145224,37.366408 41.827816,37.683816 C41.510408,38.001224 41.08856,38.176 40.64,38.176 L39.52,38.176 C38.593648,38.176 37.84,37.422352 37.84,36.496 C37.84,36.04744 38.014776,35.625592 38.332184,35.30824 C38.627024,35.0134 39.012024,34.841816 39.4248,34.818912 L39.4248,27.576992 C38.658048,27.410112 37.997248,26.95724 37.559944,26.335696 C37.104608,26.982776 36.407128,27.447072 35.6,27.596032 L35.6,32.576 C36.526352,32.576 37.28,33.329648 37.28,34.256 C37.28,34.70456 37.105224,35.126408 36.787816,35.443816 C36.470408,35.761224 36.04856,35.936 35.6,35.936 L34.48,35.936 C33.553648,35.936 32.8,35.182352 32.8,34.256 C32.8,33.80744 32.974776,33.385592 33.292184,33.068184 C33.609592,32.750776 34.03144,32.576 34.48,32.576 L34.48,27.596088 C33.674104,27.447352 32.977464,26.984232 32.522128,26.338608 C32.29908,26.655456 32.01488,26.930976 31.68,27.148424 L31.68,38.904 L36.45568,38.904 C38.09508,38.904 39.580088,39.753912 40.410848,41.144 Z M30.4705436,41.3940847 C30.1962301,41.1289215 29.7589999,41.1363851 29.4940098,41.4108086 C29.2289506,41.6853011 29.2364093,42.1228169 29.5107228,42.3880492 L29.5370353,42.4130659 C29.6702555,42.5380802 29.8400094,42.6 30.0092108,42.6 C30.1935367,42.6 30.3772411,42.5267467 30.5132238,42.3815531 C30.7740701,42.1030523 30.7599815,41.6657439 30.4817316,41.4047272 L30.4705436,41.3940847 Z"></path>
            </g>
        </g>
    </g>
</svg>