<?xml version="1.0" encoding="UTF-8"?>
<svg width="32px" height="32px" viewBox="0 0 32 32" version="1.1" xmlns="http://www.w3.org/2000/svg" xmlns:xlink="http://www.w3.org/1999/xlink">
    <!-- Generator: Sketch 51.2 (57519) - http://www.bohemiancoding.com/sketch -->
    <title>Combined Shape</title>
    <desc>Created with Sketch.</desc>
    <defs></defs>
    <g id="Symbols" stroke="none" stroke-width="1" fill="none" fill-rule="evenodd">
        <g id="ic_cat_tec_no_selected" transform="translate(-14.000000, -14.000000)" fill="#0083FF" fill-rule="nonzero" stroke="#FFFFFF" stroke-width="0.15">
            <g id="Combined-Shape">
                <path d="M44.4097783,40.3725633 L32.5472567,40.3725633 C32.2212711,40.3725633 31.956917,40.6369174 31.956917,40.962903 C31.956917,41.5053071 31.5156381,41.946586 30.973234,41.946586 L29.0114762,41.946586 C28.4690721,41.946586 28.0277932,41.5053071 28.0277932,40.962903 C28.0277932,40.6369174 27.7634391,40.3725633 27.4374535,40.3725633 L18.2212475,40.3725633 L18.2212475,25.2031359 C18.2212475,24.5248946 18.773097,23.9730451 19.4513383,23.9730451 L26.8137596,23.9730451 L26.8191317,24.0247588 L25.5925239,25.1824149 C25.5884506,25.1863112 25.5843182,25.1903255 25.5803039,25.1942808 C24.508188,26.2665147 23.9177303,27.692067 23.9177303,29.2082364 L23.9177303,31.8442802 C23.9177303,32.0775234 24.0551023,32.288924 24.268274,32.3837326 C24.3452542,32.4179723 24.4269573,32.4346199 24.5080109,32.4346199 C24.6514044,32.4346199 24.7929679,32.3823748 24.9035975,32.2826074 L27.4868649,29.9518283 C27.5612477,30.0790465 27.681618,30.1770429 27.8287306,30.2204919 C28.5224388,30.4253988 29.2409412,30.5305383 29.9642844,30.5330177 C29.9729624,30.5330177 29.9816995,30.5330767 29.9904365,30.5330767 C30.7223986,30.5330767 31.44952,30.4279372 32.1519062,30.2204919 C32.3032102,30.1757441 32.4259419,30.0728479 32.4996753,29.9399034 L35.0965205,32.2829026 C35.2072092,32.38267 35.3487136,32.434915 35.4921071,32.434915 C35.5731608,32.434915 35.6548638,32.4182674 35.7318441,32.3840277 C35.9449567,32.2892782 36.0823878,32.0778186 36.0823878,31.8445753 L36.0823878,29.2085316 C36.0823878,27.6923031 35.49193,26.2668099 34.4198141,25.1945759 L33.2853584,24.0601202 L33.2963387,23.972927 L40.5487797,23.972927 C41.227021,23.972927 41.7788705,24.5247765 41.7788705,25.2030178 L41.7788705,36.0265416 C41.7788705,36.3525272 42.0432246,36.6168813 42.3692102,36.6168813 C42.6951958,36.6168813 42.9595499,36.3525272 42.9595499,36.0265416 L42.9595499,25.2031359 C42.9595499,23.873809 41.8781066,22.7923657 40.5487797,22.7923657 L33.4328252,22.7923657 C33.6396802,20.1063792 32.7368738,17.452271 30.9172107,15.4451752 L30.813429,15.3308264 C30.6226312,15.1203112 30.3508979,15 30.0670035,15 C30.0645241,15 30.0619856,15 30.0595062,15 C29.7728963,15.0021252 29.4999232,15.126805 29.3106013,15.3419838 L29.1150218,15.5641876 C27.3711583,17.5458399 26.4972785,20.1663577 26.6954555,22.7923657 L19.4513973,22.7923657 C18.1220704,22.7923657 17.0406272,23.873809 17.0406272,25.2031359 L17.0406272,40.3725633 L15.5903397,40.3725633 C15.2643541,40.3725633 15,40.6369174 15,40.962903 L15,41.8832426 C15,43.726106 16.4993447,45.2253917 18.34209,45.2253917 L41.6578509,45.2253917 C43.5007143,45.2253917 45,43.726165 45,41.8833016 L45,40.962903 C45.000118,40.6368584 44.7357639,40.3725633 44.4097783,40.3725633 Z M32.8163335,27.7782566 L33.0982797,25.5429944 L33.5848967,26.0295524 C34.4340413,26.878756 34.9017084,28.0077807 34.9017084,29.2086496 L34.9017084,30.5169604 L32.7192817,28.5478824 L32.8163335,27.7782566 Z M30.0013578,16.3442035 L30.0689517,16.2674593 C31.7462838,18.1344085 32.5278345,20.6303647 32.2135967,23.1217753 L32.0778776,24.1979055 C32.0778186,24.1983777 32.0777005,24.198791 32.0776415,24.1992042 L31.5093214,28.7057983 C31.5093214,28.7058573 31.5093214,28.7058573 31.5093214,28.7059164 L31.4488707,29.1853312 C30.9708726,29.2963151 30.4820714,29.3523974 29.9904955,29.3523974 C29.9831163,29.3523974 29.975737,29.3523974 29.9683578,29.3523383 C29.487349,29.3506854 29.0088787,29.2953115 28.5410935,29.1874564 L28.0759649,24.6981003 L28.0236608,24.1931237 C28.0236608,24.1930647 28.0236608,24.1930056 28.0236018,24.1928876 L27.8939041,22.9412494 C27.6463747,20.5519676 28.4145247,18.147396 30.0013578,16.3442035 Z M27.2869759,28.54192 L25.0984096,30.5166062 L25.0984096,29.2082954 C25.0984096,28.0102011 25.5639515,26.8835968 26.4093179,26.0351016 L26.9722658,25.5037368 L27.2869759,28.54192 Z M41.657969,44.0447123 L18.34209,44.0447123 C17.1502533,44.0447123 16.1806203,43.0750794 16.1806203,41.8832426 L16.1806203,41.5532427 L26.9288168,41.5532427 C27.186382,42.4607129 28.0224801,43.1272654 29.0113581,43.1272654 L30.9731159,43.1272654 C31.9619939,43.1272654 32.798092,42.4607129 33.0556572,41.5532427 L43.8193796,41.5532427 L43.8192616,41.8833016 L43.8193796,41.8833016 C43.8194387,43.0750794 42.8498057,44.0447123 41.657969,44.0447123 Z M39.9680036,25.2908603 C40.2939891,25.2908603 40.5583432,25.5552145 40.5582842,25.8812 L40.5582842,38.4991794 C40.5582842,38.825165 40.2939301,39.0895191 39.9679445,39.0895191 L20.2302325,39.0895191 C19.9042469,39.0895191 19.6398928,38.825165 19.6398928,38.4991794 L19.6398928,25.8812 C19.6398928,25.5552145 19.9042469,25.2908603 20.2302325,25.2908603 L22.6930115,25.2908603 C23.0189971,25.2908603 23.2833512,25.5552145 23.2833512,25.8812 C23.2833512,26.2071856 23.0189971,26.4715397 22.6930115,26.4715397 L20.8205721,26.4715397 L20.8205721,37.9088397 L39.3776639,37.9088397 L39.3776639,26.4715397 L36.9961155,26.4715397 C36.67013,26.4715397 36.4057759,26.2071856 36.4057759,25.8812 C36.4057759,25.5552145 36.67013,25.2908603 36.9961155,25.2908603 L39.9680036,25.2908603 Z M30.000059,21.8225557 C29.6740234,21.8225557 29.4097193,21.5582516 29.4097193,21.232216 C29.4097193,20.9061804 29.6740234,20.6418763 30.000059,20.6418763 C30.3260946,20.6418763 30.5903987,20.9061804 30.5903987,21.232216 C30.5903987,21.5582516 30.3260946,21.8225557 30.000059,21.8225557 Z M42.3694463,39.1903491 C42.0434107,39.1903491 41.7791067,38.926045 41.7791067,38.6000094 C41.7791067,38.2739738 42.0434107,38.0096697 42.3694463,38.0096697 C42.6954819,38.0096697 42.959786,38.2739738 42.959786,38.6000094 C42.959786,38.926045 42.6954819,39.1903491 42.3694463,39.1903491 Z M28.4649987,31.3908403 C28.7910433,31.3908403 29.0553384,31.6551944 29.0553384,31.9811799 L29.0553384,34.3841576 C29.0553384,34.7102022 28.7909843,34.9744973 28.4649987,34.9744973 C28.1390132,34.9744973 27.8746591,34.7101432 27.8746591,34.3841576 L27.8746591,31.9811799 C27.8746591,31.6551944 28.1390132,31.3908403 28.4649987,31.3908403 Z M31.4642195,31.2539995 C31.7902051,31.2539995 32.0545592,31.5183536 32.0545592,31.8443392 L32.0545592,35.3879122 C32.0545592,35.7139568 31.7902051,35.9782519 31.4642195,35.9782519 C31.1382339,35.9782519 30.8738798,35.7138977 30.8738798,35.3879122 L30.8738798,31.8443392 C30.8738798,31.5183536 31.1382339,31.2539995 31.4642195,31.2539995 Z"></path>
            </g>
        </g>
    </g>
</svg>