<?xml version="1.0" encoding="UTF-8"?>
<svg width="38px" height="32px" viewBox="0 0 38 32" version="1.1" xmlns="http://www.w3.org/2000/svg" xmlns:xlink="http://www.w3.org/1999/xlink">
    <!-- Generator: Sketch 51.2 (57519) - http://www.bohemiancoding.com/sketch -->
    <title>Combined Shape</title>
    <desc>Created with Sketch.</desc>
    <defs></defs>
    <g id="Symbols" stroke="none" stroke-width="1" fill="none" fill-rule="evenodd">
        <g id="ic_cat_saude_bem_estar_no_selected" transform="translate(-11.000000, -14.000000)" fill="#0083FF" fill-rule="nonzero" stroke="#FFFFFF" stroke-width="0.4">
            <g id="Combined-Shape">
                <path d="M33.4423158,41.0551579 C34.6362807,41.0551579 35.6077193,42.0265263 35.6077193,43.2205614 C35.6077193,44.4145965 34.6362807,45.3859649 33.4423158,45.3859649 L26.1129123,45.3859649 C24.5929825,45.3859649 23.1637895,44.7158596 22.1917193,43.5473684 L20.4389474,41.4405614 C19.7388772,40.5990175 18.7115789,40.1145965 17.6176842,40.1083509 C17.3597895,40.7465965 16.7341754,41.1982456 16.0046316,41.1982456 L15.2759298,41.1982456 C14.8884211,41.1982456 14.5742456,40.8840702 14.5742456,40.4965614 C14.5742456,40.1089825 14.8884211,39.7948772 15.2759298,39.7948772 L16.0047018,39.7948772 C16.1899649,39.7948772 16.3406316,39.6441404 16.3406316,39.4589474 L16.3406316,33.8348772 C16.3406316,33.6496842 16.1899649,33.4989474 16.0047018,33.4989474 L13.4033684,33.4989474 L13.4033684,37.9283509 C13.4033684,38.3159298 13.089193,38.6300351 12.7016842,38.6300351 C12.3141754,38.6300351 12,38.3158596 12,37.9283509 L12,32.7973333 C12,32.4097544 12.3141754,32.0956491 12.7016842,32.0956491 L16.0046316,32.0956491 C16.7244912,32.0956491 17.3436491,32.5352982 17.6076491,33.1601404 L20.3275088,33.1601404 C21.9670877,33.1601404 23.5196491,33.7872281 24.6992281,34.9258947 L28.4822456,38.5774737 C29.2941053,39.361193 29.3319298,40.6733333 28.5665965,41.5024561 C28.1551579,41.9481404 27.5922807,42.1741754 27.0277895,42.1741754 C26.5221754,42.1741754 26.0152982,41.9928421 25.6147368,41.6256842 L22.6447018,38.9031579 C22.3590175,38.6413333 22.3397193,38.1974737 22.601614,37.9117895 C22.8634386,37.6261053 23.3073684,37.6068772 23.5929123,37.8687018 L26.5629474,40.5912281 C26.8421754,40.8471579 27.278386,40.8289825 27.5353684,40.5506667 C27.7875088,40.2775439 27.7750175,39.8452632 27.5075789,39.5870877 L23.7245614,35.9355088 C22.808,35.0507368 21.601614,34.5634386 20.3275088,34.5634386 L17.7439298,34.5634386 L17.7439298,38.7084912 C19.2084912,38.750386 20.5772632,39.4124912 21.5177544,40.5430175 L23.2705263,42.6498246 C23.9750877,43.4968421 25.0111579,43.9825965 26.1129123,43.9825965 L33.4423158,43.9825965 C33.8625965,43.9825965 34.2044211,43.6407719 34.2044211,43.2205614 C34.2044211,42.8003509 33.8625263,42.4585263 33.4423158,42.4585263 L30.7195789,42.4585263 C30.3320702,42.4585263 30.0178947,42.1444211 30.0178947,41.7568421 C30.0178947,41.3692632 30.3320702,41.0551579 30.7195789,41.0551579 L33.4423158,41.0551579 Z M47.2281404,21.4912982 C47.6156491,21.4912982 47.9298246,21.8054035 47.9298947,22.1928421 L47.9298947,27.5980351 C47.9298947,27.985614 47.6157193,28.2997193 47.2282105,28.2997193 L43.925193,28.2997193 C43.2053333,28.2997193 42.5861754,27.8600702 42.3221754,27.2352281 L39.6023158,27.2352281 C37.9627368,27.2352281 36.4101754,26.6081404 35.2305965,25.4694737 L31.4475789,21.8178947 C30.6357193,21.0342456 30.5978947,19.7221053 31.3632281,18.8929123 C32.1432982,18.048 33.4673684,17.9926316 34.3150877,18.7696842 L37.285193,21.4921404 C37.5708772,21.7539649 37.5901754,22.1978246 37.3283509,22.4835088 C37.066386,22.769193 36.6226667,22.7884211 36.3369825,22.5265965 L33.3668772,19.8040702 C33.0876491,19.5481404 32.6514386,19.5662456 32.3944561,19.8446316 C32.1423158,20.1178246 32.154807,20.5500351 32.4222456,20.8082105 L36.2052632,24.4597895 C37.1218246,25.3445614 38.3282105,25.8318596 39.6023158,25.8318596 L42.1858947,25.8318596 L42.1858947,21.686807 C40.7213333,21.6448421 39.3524912,20.9827368 38.4120702,19.8522105 L36.6592982,17.7454737 C35.9547368,16.8984561 34.9186667,16.4127018 33.8168421,16.4127018 L26.4875088,16.4127018 C26.0672281,16.4127018 25.7254035,16.7545965 25.7254035,17.1747368 C25.7254035,17.5949474 26.0672982,17.9367719 26.4875088,17.9367719 L29.4845614,17.9367719 C29.8720702,17.9367719 30.1862456,18.2508772 30.1862456,18.6384561 C30.1862456,19.0260351 29.8720702,19.3401404 29.4845614,19.3401404 L26.4875088,19.3401404 C25.2935439,19.3401404 24.3221053,18.3687719 24.3221053,17.174807 C24.3221053,15.9808421 25.2935439,15.0094737 26.4875088,15.0094737 L33.8167719,15.0094737 C35.3367719,15.0094737 36.7660351,15.6796491 37.7380351,16.8481404 L39.490807,18.9548772 C40.1908772,19.7964211 41.2181754,20.2808421 42.3120702,20.2870877 C42.5699649,19.6488421 43.1955789,19.197193 43.9251228,19.197193 L44.602386,19.197193 C44.9898947,19.197193 45.3040702,19.5113684 45.3040702,19.8988772 C45.3040702,20.2864561 44.9898947,20.6005614 44.602386,20.6005614 L43.9251228,20.6005614 C43.7398596,20.6005614 43.589193,20.7512982 43.589193,20.9364912 L43.589193,26.5605614 C43.589193,26.7457544 43.7398596,26.8964912 43.9251228,26.8964912 L46.5264561,26.8964912 L46.5264561,22.1929825 C46.5264561,21.8054035 46.8406316,21.4912982 47.2281404,21.4912982 Z M33.7281404,38.5232281 C34.0809825,38.3637193 34.4957193,38.5212632 34.6552982,38.874386 C34.814807,39.2275789 34.6567018,39.6436491 34.3035088,39.8031579 C34.3006316,39.8044211 34.2913684,39.8085614 34.2884211,39.8098246 C34.197193,39.8495439 34.1021754,39.8683509 34.0086316,39.8683509 C33.7378947,39.8683509 33.4799298,39.7107368 33.3649825,39.4466667 C33.2102456,39.0914386 33.3727719,38.6779649 33.7281404,38.5232281 Z M35.4172632,37.5449825 C35.729193,37.3166316 36.1701053,37.3814737 36.3995088,37.6930526 C36.6288421,38.0044912 36.5658246,38.4407018 36.2550175,38.6708772 C36.2539649,38.6716491 36.2473684,38.6765614 36.2462456,38.6773333 C36.1213333,38.7687719 35.9761404,38.8128421 35.8322807,38.8128421 C35.6161404,38.8128421 35.4030877,38.7133333 35.265614,38.525614 C35.0367018,38.2129825 35.1046316,37.7738947 35.4172632,37.5449825 Z M31.8644211,39.1204211 C32.2426667,39.0422456 32.6136842,39.2842105 32.693614,39.6621053 C32.7738246,40.0411228 32.5325614,40.413193 32.153614,40.4935439 C32.1489825,40.4945263 32.1374737,40.4968421 32.1329123,40.4977544 C32.0884912,40.5062456 32.0440702,40.510386 32.0004211,40.510386 C31.670386,40.510386 31.3762807,40.2764912 31.312,39.9403509 C31.2395789,39.5614035 31.4865965,39.1954386 31.8644211,39.1204211 Z M37.8653333,36.1668772 C38.1527018,36.4260351 38.1759298,36.8688421 37.9175439,37.1566316 C37.7790175,37.3141053 37.5852632,37.394807 37.390386,37.394807 C37.2280702,37.394807 37.0649825,37.338807 36.9324211,37.2244211 C36.6390175,36.9712982 36.6063158,36.5282105 36.8595088,36.234807 C36.8628772,36.2309474 36.8709474,36.2218246 36.874386,36.2179649 C37.1340351,35.9301754 37.577614,35.9073684 37.8653333,36.1668772 Z M39.6512982,32.3642105 C40.0221053,32.4766316 40.2322807,32.866386 40.1198596,33.2372632 L40.1169123,33.2468772 C40.0241404,33.5485614 39.7464561,33.742386 39.4465263,33.742386 C39.3781754,33.742386 39.3087018,33.7323509 39.24,33.7111579 C38.869614,33.597193 38.6617544,33.2045614 38.7757193,32.8341754 C38.8882105,32.4632982 39.2804912,32.2517193 39.6512982,32.3642105 Z M40.5449123,28.716 C40.546807,28.7249123 40.5484912,28.7338246 40.5500351,28.7427368 C40.6183158,29.1242105 40.3644912,29.4888421 39.9830175,29.5571228 C39.9412632,29.5646316 39.8995789,29.5682105 39.8585263,29.5682105 C39.5281404,29.5682105 39.2347368,29.3338947 39.170386,28.9990877 C39.0943158,28.6214035 39.337193,28.252 39.7149474,28.1732632 C40.0940351,28.0941754 40.4656842,28.3367719 40.5449123,28.716 Z M39.9065263,30.265193 C40.2914386,30.2991579 40.5762105,30.6378246 40.5442105,31.022386 C40.5173333,31.3903158 40.2103158,31.6728421 39.8449825,31.6728421 C39.8310877,31.6728421 39.817193,31.6724211 39.8031579,31.6715789 C39.4162807,31.6488421 39.121193,31.3167719 39.1439298,30.9298947 C39.1443509,30.9230877 39.1453333,30.9092632 39.1459649,30.9024561 C39.18,30.5164912 39.5217544,30.2312281 39.9065263,30.265193 Z M38.0080702,34.6254035 C38.1990877,34.2882105 38.6275789,34.1698947 38.9644211,34.3608421 C39.301614,34.5519298 39.42,34.9800702 39.2284211,35.3181053 C39.1017544,35.5516491 38.8625263,35.6830175 38.6148772,35.6830175 C38.5012632,35.6830175 38.3859649,35.6554386 38.278807,35.5973333 C37.9382456,35.4125614 37.8135439,34.9835789 37.9983158,34.6429474 L38.0080702,34.6254035 Z M25.6092632,22.013614 C25.3514386,22.013614 25.1027368,21.8722807 24.98,21.6267368 C24.8066667,21.2801404 24.944,20.8602807 25.2906667,20.6869474 L25.2969123,20.6838596 C25.6432982,20.5104561 26.0649825,20.6510175 26.2382456,20.9976842 C26.4115088,21.3443509 26.2710877,21.7658246 25.9244211,21.9390877 C25.8232982,21.989614 25.7155088,22.013614 25.6092632,22.013614 Z M27.5763509,21.2821754 C27.2641404,21.2821754 26.9801404,21.0717193 26.8985263,20.7550877 C26.8018947,20.3798596 27.029193,19.9969123 27.4044912,19.9002105 C27.4077193,19.8993684 27.4176842,19.8968421 27.4209123,19.8960702 C27.7981053,19.8047018 28.1769123,20.0361404 28.2682105,20.4126316 C28.3595088,20.7892632 28.1282105,21.1685614 27.7516491,21.2598596 C27.6929825,21.2749474 27.6341754,21.2821754 27.5763509,21.2821754 Z M24.2686316,23.0021754 C24.1394386,23.1049825 23.9851228,23.1549474 23.832,23.1549474 C23.625614,23.1549474 23.421193,23.0643509 23.2825263,22.8903158 C23.041193,22.5871579 23.0912281,22.1457544 23.3964912,21.9027368 C23.698386,21.6606316 24.1402105,21.708 24.3828772,22.0095439 C24.6255439,22.3110877 24.5789474,22.7515789 24.2778947,22.9947368 L24.2686316,23.0021754 Z M20.2898246,28.3668772 C19.9134035,28.2754386 19.6821053,27.8968421 19.7733333,27.5203509 C19.7749474,27.5138947 19.7783158,27.5006316 19.7800702,27.4942456 C19.8820351,27.1203509 20.2677193,26.9000702 20.641614,27.0019649 C21.0126316,27.1031579 21.2324912,27.4837193 21.1362807,27.854807 C21.0565614,28.173193 20.7705263,28.386807 20.4557193,28.386807 C20.4009825,28.386807 20.3454035,28.3803509 20.2898246,28.3668772 Z M20.1327719,30.4719298 C19.7455439,30.4603509 19.4409123,30.1377544 19.4522807,29.7505965 C19.4525614,29.741614 19.4529123,29.7326316 19.4534737,29.7235789 C19.4759298,29.3367719 19.8067368,29.0421053 20.1945965,29.0636491 C20.5785263,29.0859649 20.8724211,29.4129123 20.8548772,29.796 C20.8409825,30.1738246 20.5301754,30.4722807 20.1540351,30.4722807 C20.1469474,30.4722807 20.1399298,30.4721404 20.1327719,30.4719298 Z M20.8858947,26.3409123 C20.538386,26.1697544 20.3949474,25.7499649 20.5659649,25.402386 L20.5774035,25.3797895 C20.7574035,25.0366316 21.1814737,24.9043509 21.5247018,25.0844211 C21.865614,25.2632982 21.998386,25.6829474 21.8236491,26.0249123 C21.7007018,26.2705263 21.4526316,26.4131228 21.1949474,26.4131228 C21.0908772,26.4131228 20.9854035,26.3899649 20.8858947,26.3409123 Z M21.9037895,24.4905965 C21.6002807,24.2498947 21.5488421,23.8093333 21.7894035,23.5056842 C21.7927719,23.5015439 21.8004912,23.492 21.8038596,23.4878596 C22.0513684,23.1897544 22.4937544,23.1487018 22.7919298,23.3962105 C23.0884912,23.6424561 23.1305965,24.0814737 22.8875088,24.3795088 C22.7489123,24.5522807 22.5448421,24.642386 22.3390175,24.642386 C22.1863158,24.642386 22.0326316,24.5928421 21.9037895,24.4905965 Z M20.173193,31.1765614 C20.5544561,31.1082105 20.9192982,31.3620351 20.9875789,31.7435088 C21.0559298,32.1249825 20.8026667,32.4930526 20.421193,32.5613333 C20.3789474,32.5689123 20.3369123,32.5725614 20.2954386,32.5725614 C19.9627368,32.5725614 19.6682105,32.3369825 19.6074386,31.9978246 L19.6061754,31.9909474 C19.5378947,31.6094737 19.7917193,31.2449123 20.173193,31.1765614 Z M25.5635789,32.1787368 C24.8181754,31.5572632 24.3905965,30.6448421 24.3905965,29.6753684 C24.3905965,27.8786667 25.8522807,26.4169825 27.6489825,26.4169825 C28.5623158,26.4169825 29.4084912,26.793614 30.0115789,27.429193 C30.6145965,26.793614 31.4608421,26.4169825 32.3741754,26.4169825 C34.1708772,26.4169825 35.6325614,27.8786667 35.6325614,29.6753684 C35.6325614,30.5472982 35.2925614,31.3665965 34.6750877,31.982386 C34.6566316,32.0007719 34.637193,32.0181754 34.6167719,32.034386 L30.4487018,35.354386 C30.3208421,35.4562807 30.1661754,35.5072281 30.0115088,35.5072281 C29.8575439,35.5072281 29.7035789,35.4567719 29.576,35.3557193 L25.5773333,32.1899649 C25.5727018,32.1862456 25.5680702,32.1825263 25.5635789,32.1787368 Z M27.6489825,27.8203509 C26.6261053,27.8203509 25.7938947,28.6525614 25.7939649,29.6755088 C25.7939649,30.2246316 26.0351579,30.7417544 26.4559298,31.0957193 L30.0103158,33.9096842 L33.7094737,30.9631579 C34.0449123,30.6156491 34.2292632,30.1597895 34.2292632,29.6754386 C34.2292632,28.6525614 33.3970526,27.8203509 32.3741754,27.8203509 C31.6211228,27.8203509 30.9482105,28.2701053 30.6597895,28.9661053 C30.5510877,29.2282807 30.2952982,29.3991579 30.0115789,29.3991579 C29.7278596,29.3991579 29.4720702,29.2282105 29.3633684,28.9661053 C29.0749474,28.2701053 28.4020351,27.8203509 27.6489825,27.8203509 Z M12.7016842,39.7974035 C13.0878596,39.7974035 13.4009123,40.1104561 13.4009123,40.4966316 C13.4009123,40.882807 13.0878596,41.1958596 12.7016842,41.1958596 C12.3155088,41.1958596 12.0024561,40.882807 12.0024561,40.4966316 C12.0024561,40.1104561 12.3155088,39.7974035 12.7016842,39.7974035 Z M47.2280702,19.1995088 C47.6142456,19.1995088 47.9272982,19.5125614 47.9272982,19.8987368 C47.9272982,20.2849123 47.6142456,20.5979649 47.2280702,20.5979649 C46.8418947,20.5979649 46.5288421,20.2849123 46.5288421,19.8987368 C46.5288421,19.5125614 46.8418947,19.1995088 47.2280702,19.1995088 Z"></path>
            </g>
        </g>
    </g>
</svg>