<?xml version="1.0" encoding="UTF-8"?>
<svg width="37px" height="24px" viewBox="0 0 37 24" version="1.1" xmlns="http://www.w3.org/2000/svg" xmlns:xlink="http://www.w3.org/1999/xlink">
    <!-- Generator: Sketch 51.2 (57519) - http://www.bohemiancoding.com/sketch -->
    <title>Fill 3</title>
    <desc>Created with Sketch.</desc>
    <defs></defs>
    <g id="Symbols" stroke="none" stroke-width="1" fill="none" fill-rule="evenodd">
        <g id="ic_cat_pride_no_selected" transform="translate(-13.000000, -18.000000)" fill="#0083FF" stroke="#FFFFFF" stroke-width="0.3">
            <g id="Fill-3">
                <path d="M46.265625,39.5078125 L36.6953125,39.5078125 C35.9414453,39.5078125 35.328125,38.8944922 35.328125,38.140625 C35.328125,37.4015234 35.9176563,36.7976367 36.6511523,36.7741211 C36.8286816,36.798252 37.0087402,36.7513574 37.1523633,36.6437598 C37.2977637,36.5348633 37.3938086,36.3725098 37.4193066,36.1925879 C37.5481641,35.2838184 37.9883984,34.4328809 38.6588672,33.7965918 C39.2548242,33.2313281 39.9961133,32.861709 40.8014551,32.7276563 C41.0261523,32.6906055 41.2546094,32.6718066 41.4804688,32.6718066 C42.1195605,32.6718066 42.7309668,32.8136523 43.2974609,33.0933105 C44.5127539,33.6937793 45.3511816,34.8497363 45.5402637,36.1855469 C45.5879785,36.5227637 45.8765918,36.7733691 46.2170898,36.7733691 L46.265625,36.7733691 C46.3255762,36.7733691 46.3851172,36.7774023 46.4473242,36.7860156 C47.123125,36.8748145 47.6328125,37.4570996 47.6328125,38.140625 C47.6328125,38.8944922 47.0194922,39.5078125 46.265625,39.5078125 M31.5,27.203125 C28.3370801,27.203125 25.5165723,29.2291602 24.4384082,32.1463281 C24.0504004,31.901123 23.6338184,31.7061621 23.1965234,31.5660938 C24.505332,28.1624805 27.8311523,25.8359375 31.5,25.8359375 C35.1797168,25.8359375 38.4977441,28.1593359 39.8046387,31.5664355 C39.3669336,31.7069141 38.9500781,31.9023535 38.5619336,32.1479688 C37.485,29.2298438 34.6646289,27.203125 31.5,27.203125 M25.5793945,36.1858203 C25.6272461,36.5229004 25.915791,36.7733691 26.2562207,36.7733691 L26.3046875,36.7733691 C27.0585547,36.7733691 27.671875,37.3866895 27.671875,38.1405566 C27.671875,38.8944238 27.0585547,39.5077441 26.3046875,39.5077441 L16.734375,39.5077441 C15.9805078,39.5077441 15.3671875,38.8944238 15.3671875,38.1405566 C15.3671875,37.4579883 15.876123,36.8756348 16.554043,36.7855371 C16.5982715,36.7794531 16.6438672,36.775625 16.6901465,36.7741211 C16.8679492,36.798252 17.0478711,36.7513574 17.1914258,36.6436914 C17.3368262,36.5347266 17.4328711,36.372373 17.4583691,36.1923828 C17.6475879,34.8550684 18.4866992,33.6972656 19.7029492,33.0950879 C19.7030859,33.0950195 19.7031543,33.0950195 19.703291,33.0949512 C20.2697168,32.8142676 20.8807812,32.671875 21.5195312,32.671875 C21.7501758,32.671875 21.9806152,32.6910156 22.2053809,32.7288184 C23.0087402,32.8630078 23.7475,33.2314648 24.3418848,33.794541 C25.010918,34.4276855 25.4504004,35.2769824 25.5793945,36.1858203 M31.5,20.3671875 C38.9722949,20.3671875 45.1283984,26.1062305 45.7946289,33.4077637 C45.3647168,32.8568555 44.8280273,32.3871582 44.2074609,32.0305273 C43.5769141,29.0525879 41.9124316,26.385752 39.4942188,24.4924023 C39.1969922,24.2596387 38.7672852,24.312002 38.5345898,24.6092285 C38.3018262,24.9064551 38.3541211,25.3361621 38.651416,25.5688574 C40.5732715,27.073584 41.9626758,29.1232715 42.6451074,31.4282129 C42.2661914,31.3463867 41.8772949,31.3046875 41.4804688,31.3046875 C41.3768359,31.3046875 41.2728613,31.3087207 41.1688184,31.314668 C39.7265039,27.256377 35.830498,24.46875 31.5,24.46875 C27.1816699,24.46875 23.2746582,27.2602051 21.8310449,31.3145313 C21.7273437,31.3087207 21.6234375,31.3046875 21.5195312,31.3046875 C21.1222949,31.3046875 20.7330566,31.3466602 20.3537988,31.4289648 C21.7937207,26.5383984 26.3033203,23.1015625 31.5,23.1015625 C32.4909375,23.1015625 33.475791,23.2270703 34.4272852,23.474668 C34.7927344,23.5698242 35.1659082,23.3505957 35.2609961,22.9852148 C35.356084,22.619834 35.1369238,22.2465918 34.771543,22.1515039 C33.7077344,21.8747168 32.6070117,21.734375 31.5,21.734375 C25.3382227,21.734375 20.0519238,26.0845605 18.7924707,32.0328516 C18.1718359,32.3900293 17.6350781,32.8602051 17.2050293,33.4115918 C17.8694824,26.1082129 24.0264062,20.3671875 31.5,20.3671875 M47.2226562,35.5791309 L47.2226562,34.7226562 C47.2226562,26.0328125 40.190459,19 31.5,19 C22.8102246,19 15.7773438,26.0321973 15.7773438,34.7226562 L15.7773438,35.5796094 C14.7318555,35.971377 14,36.983916 14,38.140625 C14,39.6483594 15.2266406,40.875 16.734375,40.875 L26.3046875,40.875 C27.8124219,40.875 29.0390625,39.6483594 29.0390625,38.140625 C29.0390625,36.8120605 28.086543,35.7016992 26.8285937,35.4566309 C26.6115527,34.5798535 26.1764453,33.7642578 25.5675684,33.0938574 C26.3046875,30.4525195 28.7434082,28.5703125 31.5,28.5703125 C34.2585742,28.5703125 36.6975684,30.45375 37.4327734,33.0967969 C36.824375,33.7676074 36.3894043,34.5821094 36.171748,35.4565625 C34.9135938,35.7014258 33.9609375,36.8118555 33.9609375,38.140625 C33.9609375,39.6483594 35.1875781,40.875 36.6953125,40.875 L46.265625,40.875 C47.7733594,40.875 49,39.6483594 49,38.140625 C49,36.9822754 48.2669141,35.9693945 47.2226562,35.5791309 M36.96875,24.46875 C37.3460937,24.46875 37.6523438,24.1625 37.6523438,23.7851562 C37.6523438,23.4078125 37.3460937,23.1015625 36.96875,23.1015625 C36.5914063,23.1015625 36.2851562,23.4078125 36.2851562,23.7851562 C36.2851562,24.1625 36.5914063,24.46875 36.96875,24.46875"></path>
            </g>
        </g>
    </g>
</svg>