<?xml version="1.0" encoding="UTF-8"?>
<svg width="30px" height="24px" viewBox="0 0 30 24" version="1.1" xmlns="http://www.w3.org/2000/svg" xmlns:xlink="http://www.w3.org/1999/xlink">
    <!-- Generator: Sketch 51.2 (57519) - http://www.bohemiancoding.com/sketch -->
    <title>ic_cat_outras_no_selected_solo</title>
    <desc>Created with Sketch.</desc>
    <defs></defs>
    <g id="Symbols" stroke="none" stroke-width="1" fill="none" fill-rule="evenodd">
        <g id="ic_cat_outras_no_selected" transform="translate(-15.000000, -16.000000)" fill="#0083FF" fill-rule="nonzero" stroke="#0083FF" stroke-width="0.15">
            <g id="ic_cat_outras_no_selected_solo" transform="translate(16.000000, 17.000000)">
                <path d="M1.52346106,17.2426689 C0.801140648,18.0340603 0.687073778,19.3378481 1.2688497,20.3873996 C1.87996665,21.4898838 3.14416155,22.1163261 4.22385269,21.8665375 L20.1343676,19.8559631 L11.8575669,4.92421937 L1.55783926,17.2000749 C1.5473516,17.2148236 1.5358885,17.2290531 1.52346106,17.2426689 Z M20.6237138,1.72158389 C20.5970634,1.62262623 20.5598171,1.52820982 20.5126871,1.4431851 C20.2362948,0.944560133 19.6386359,0.757297487 19.1824434,1.01016908 C18.726251,1.26304068 18.5683478,1.86911824 18.8447401,2.3677432 C18.9648858,2.58449183 18.8865737,2.85759867 18.6698251,2.9777444 C18.4530765,3.09789013 18.1799696,3.019578 18.0598239,2.80282937 C17.5477599,1.87904145 17.8488708,0.72329206 18.7473573,0.225252861 C19.6458438,-0.272786338 20.7855393,0.0843110123 21.2976033,1.00809893 C21.486164,1.34827137 21.578086,1.75121695 21.5695454,2.14141049 C21.5690346,2.16475108 21.5667503,2.18763633 21.5628242,2.20994036 C21.5623464,3.1843601 21.1552781,3.97779634 20.4279424,4.6487281 C20.0968582,4.95413724 19.8623812,5.11930159 19.2213405,5.53407805 C19.0987146,5.61342142 19.0231168,5.66337648 18.9539639,5.71136519 C18.7503644,5.852653 18.4707781,5.80213947 18.3294903,5.59854006 C18.1882025,5.39494065 18.238716,5.11535432 18.4423154,4.97406651 C18.5214934,4.91912094 18.6035925,4.86486986 18.7338187,4.78060878 C19.3300467,4.39482776 19.5396572,4.24717924 19.8194515,3.98908256 C20.4899223,3.37060585 20.7799548,2.67282071 20.6237138,1.72158389 Z M0.48393348,20.8224858 C-0.272994657,19.4569513 -0.131491437,17.7519454 0.834837125,16.6662658 C0.837570756,16.6626926 4.4225355,12.3896718 11.5897314,3.84720343 C11.7920604,3.60605512 12.17333,3.64275858 12.3259408,3.91807568 L21.2406307,20.0006021 C21.3945424,20.2782661 21.2193335,20.6235759 20.9043643,20.6633315 L4.40293327,22.7461503 C2.92340497,23.0759853 1.2781654,22.2553181 0.48393348,20.8224858 Z M19.1973409,11.1024692 C18.9805923,11.2226149 18.7074855,11.1443028 18.5873397,10.9275542 C18.467194,10.7108055 18.5455061,10.4376987 18.7622548,10.317553 L21.8257754,8.61941575 C22.042524,8.49927002 22.3156309,8.57758214 22.4357766,8.79433077 C22.5559223,9.0110794 22.4776102,9.28418624 22.2608616,9.40433197 L19.1973409,11.1024692 Z M20.8184822,14.8032308 C20.5847066,14.7361967 20.4476962,14.4956414 20.5072208,14.2615548 C20.5080817,14.2578602 20.5088373,14.2550467 20.513236,14.2386687 C20.5815446,14.0004484 20.8300353,13.8627077 21.0682556,13.9310163 C21.3020311,13.9980504 21.4390416,14.2386056 21.379517,14.4726922 C21.3786561,14.4763868 21.3779005,14.4792004 21.3735018,14.4955784 C21.3051932,14.7337987 21.0567025,14.8715393 20.8184822,14.8032308 Z M11.3204937,16.4265689 C11.0867181,16.3595349 10.9497077,16.1189796 11.0092323,15.884893 C11.0100931,15.8811984 11.0108488,15.8783849 11.0152475,15.8620069 C11.083556,15.6237866 11.3320468,15.4860459 11.5702671,15.5543545 C11.8040426,15.6213885 11.9410531,15.8619438 11.8815284,16.0960304 C11.8806676,16.099725 11.8799119,16.1025385 11.8755133,16.1189165 C11.8072047,16.3571368 11.558714,16.4948775 11.3204937,16.4265689 Z M23.9595122,8.07245208 C23.7257367,8.00541802 23.5887262,7.76486277 23.6482508,7.53077618 C23.6491117,7.52708157 23.6498673,7.52426803 23.654266,7.50789002 C23.7225746,7.26966973 23.9710653,7.13192907 24.2092856,7.20023764 C24.4430612,7.2672717 24.5800716,7.50782695 24.520547,7.74191354 C24.5196861,7.74560815 24.5189305,7.74842169 24.5145318,7.7647997 C24.4462232,8.00301998 24.1977325,8.14076064 23.9595122,8.07245208 Z M26.8892346,12.4133172 C26.9088565,12.4196294 26.9282774,12.4273698 26.9473687,12.4365832 C27.0487837,12.485526 27.1437022,12.5419994 27.2317541,12.6049495 C27.2532601,12.6187505 27.2747275,12.6328698 27.2961561,12.6473096 C27.3315762,12.6711776 27.3625057,12.6992155 27.3887315,12.7303291 C27.9841103,13.2605006 28.1796039,14.1184362 27.8186459,14.8585098 C27.3825226,15.7526952 26.2871155,16.1085132 25.3754039,15.6638417 C25.0395247,15.5000225 24.7462398,15.2325884 24.5395091,14.9191019 C24.4030775,14.712217 24.4601912,14.4339039 24.6670761,14.2974723 C24.8739611,14.1610407 25.1522741,14.2181544 25.2887057,14.4250393 C25.409897,14.6088137 25.5828673,14.766538 25.7688144,14.8572305 C26.2412558,15.0876556 26.7963341,14.9073511 27.0120347,14.4650993 C27.2036968,14.0721337 27.0812465,13.612144 26.7261766,13.3470425 C26.0829341,12.9443003 25.3952735,12.9425431 24.5976336,13.2538332 C24.2111568,13.4046612 23.9984,13.5214882 23.3187222,13.9272837 C23.2355595,13.9769353 23.1738913,14.0131752 23.1159708,14.0461734 C22.9006435,14.1688483 22.6266386,14.0937389 22.5039636,13.8784117 C22.3812886,13.6630845 22.4563981,13.3890795 22.6717253,13.2664045 C22.7232977,13.237023 22.780302,13.2035238 22.8586721,13.1567337 C23.5846447,12.7232982 23.8206618,12.5936988 24.2713625,12.4178065 C25.194757,12.0574389 26.0688177,12.0198123 26.8892346,12.4133172 Z M16.780015,6.72629634 C16.5462394,6.65926228 16.409229,6.41870703 16.4687536,6.18462044 C16.4696145,6.18092583 16.4703701,6.17811229 16.4747688,6.16173428 C16.5430773,5.923514 16.7915681,5.78577334 17.0297884,5.8540819 C17.2635639,5.92111596 17.4005744,6.16167121 17.3410498,6.3957578 C17.3401889,6.39945242 17.3394333,6.40226595 17.3350346,6.41864396 C17.266726,6.65686425 17.0182353,6.79460491 16.780015,6.72629634 Z M4.85268109,12.7871532 C4.63655712,12.6658874 4.55965938,12.3923789 4.68092517,12.176255 C4.80219097,11.960131 5.07569942,11.8832332 5.29182339,12.004499 L9.35738666,14.2856609 C9.57351063,14.4069267 9.65040838,14.6804352 9.52914258,14.8965591 C9.40787679,15.1126831 9.13436834,15.1895808 8.91824437,15.0683151 L4.85268109,12.7871532 Z M13.4592423,17.6162403 C13.2431183,17.4949745 13.1662206,17.2214661 13.2874864,17.0053421 C13.4087522,16.7892181 13.6822606,16.7123204 13.8983846,16.8335862 L19.4123193,19.9274201 C19.6284433,20.0486859 19.705341,20.3221944 19.5840752,20.5383183 C19.4628094,20.7544423 19.189301,20.8313401 18.973177,20.7100743 L13.4592423,17.6162403 Z M1.71077956,16.8251301 C1.49492635,16.703383 1.41863828,16.4297039 1.54038539,16.2138507 C1.6621325,15.9979975 1.93581162,15.9217094 2.15166483,16.0434565 L11.0315017,21.0519271 C11.2473549,21.1736742 11.3236429,21.4473533 11.2018958,21.6632065 C11.0801487,21.8790597 10.8064696,21.9553478 10.5906164,21.8336007 L1.71077956,16.8251301 Z M8.30301275,8.76700492 C8.09092921,8.63880378 8.02292909,8.36294853 8.15113024,8.15086498 C8.27933138,7.93878144 8.55518663,7.87078132 8.76727018,7.99898247 L17.3570102,13.1913444 C17.5690937,13.3195455 17.6370938,13.5954008 17.5088927,13.8074843 C17.3806915,14.0195679 17.1048363,14.087568 16.8927527,13.9593669 L8.30301275,8.76700492 Z"></path>
            </g>
        </g>
    </g>
</svg>