<svg id="Layer_1" data-name="Layer 1" xmlns="http://www.w3.org/2000/svg" viewBox="0 0 50 50"><defs><style>.cls-1{fill:#0096ff;}</style></defs><title>icon-category-esportivo</title><path class="cls-1" d="M31.14,22.3H26.67a1.32,1.32,0,1,1,0-2.64h4.47a1.32,1.32,0,1,1,0,2.64Z"/><path class="cls-1" d="M32.19,26.34H27.72a1.32,1.32,0,1,1,0-2.64h4.47a1.32,1.32,0,1,1,0,2.64Z"/><path class="cls-1" d="M34.43,30.38H30a1.32,1.32,0,0,1,0-2.64h4.47a1.32,1.32,0,1,1,0,2.64Z"/><path class="cls-1" d="M44.37,46.59H28.7a11.7,11.7,0,0,1-8.33-3.46L1.13,23.86a3.85,3.85,0,0,1,.35-5.75l2.79-2.19V12a7.52,7.52,0,0,1,5.2-7.17l3.95-1.25A3.27,3.27,0,0,1,17.7,6.69V12a3.43,3.43,0,0,0,3.37,3.52l6.77,0a1.32,1.32,0,0,1,1.27,1l2.42,9a7.4,7.4,0,0,0,3.79,4.56l11.57,5.78a5.63,5.63,0,0,1-2.52,10.67ZM14.43,6.06a.64.64,0,0,0-.2,0L10.28,7.34A4.88,4.88,0,0,0,6.91,12v4.57a1.32,1.32,0,0,1-.51,1l-3.3,2.59A1.21,1.21,0,0,0,3,22L22.23,41.27a9.07,9.07,0,0,0,6.46,2.68H44.37a3,3,0,0,0,1.34-5.66L34.14,32.5A10,10,0,0,1,29,26.29v0l-2.16-8.06-5.77,0a6.05,6.05,0,0,1-6-6.16V6.69a.62.62,0,0,0-.26-.51A.63.63,0,0,0,14.43,6.06Z"/><path class="cls-1" d="M9.4,22.3a1.32,1.32,0,0,1-1-.46L4.59,17.42a1.32,1.32,0,0,1,2-1.73l3.81,4.42a1.32,1.32,0,0,1-1,2.18Z"/><path class="cls-1" d="M12.87,26.32a1.31,1.31,0,0,1-1-.46h0a1.32,1.32,0,1,1,1,.47Z"/><path class="cls-1" d="M48.55,43.1h-.1L30,41.71a11.69,11.69,0,0,1-8-4.06l-6.6-7.73a1.32,1.32,0,1,1,2-1.71L24,35.92a9.07,9.07,0,0,0,6.24,3.15l18.44,1.39a1.32,1.32,0,0,1-.1,2.64Z"/></svg>