<svg id="Layer_1" data-name="Layer 1" xmlns="http://www.w3.org/2000/svg" viewBox="0 0 50 50"><defs><style>.cls-1{fill:#0096ff;}</style></defs><title>icon-category-congresso-seminario</title><path class="cls-1" d="M41.8,13.6H36.4V9.71a6.17,6.17,0,0,0-6.15-6.19H19.75A6.17,6.17,0,0,0,13.6,9.71V13.6H8.2a8.05,8.05,0,0,0-8,8h0V38.44a8.05,8.05,0,0,0,8,8H48.53a1.31,1.31,0,0,0,0-2.62H8.2a5.43,5.43,0,0,1-5.42-5.42V27.56A8,8,0,0,0,8.2,29.68H18.28a1.31,1.31,0,0,0,0-2.62H8.2a5.42,5.42,0,1,1,0-10.83H41.8a5.43,5.43,0,0,1,5.42,5.42v5.41H31.52a1.31,1.31,0,0,0,0,2.62h15.7v5.22a1.31,1.31,0,1,0,2.62,0V21.64A8.05,8.05,0,0,0,41.8,13.6ZM16.23,9.71a3.55,3.55,0,0,1,3.52-3.56h10.5a3.55,3.55,0,0,1,3.52,3.56V13.6H16.23Z"/><path class="cls-1" d="M47.6,39a1.32,1.32,0,0,0-.38.92,1.31,1.31,0,1,0,2.62,0,1.32,1.32,0,0,0-.38-.92A1.36,1.36,0,0,0,47.6,39Z"/><path class="cls-1" d="M24.07,27.44a1.33,1.33,0,0,0-.38.93,1.31,1.31,0,0,0,2.24.92,1.26,1.26,0,0,0,.38-.92,1.33,1.33,0,0,0-.38-.93A1.36,1.36,0,0,0,24.07,27.44Z"/></svg>