<svg id="Layer_1" data-name="Layer 1" xmlns="http://www.w3.org/2000/svg" viewBox="0 0 50 50"><defs><style>.cls-1{fill:#0096ff;}</style></defs><title>icon-category-religioso</title><path class="cls-1" d="M13,50a1.31,1.31,0,0,1-1-2.18l6.89-7.7.05-.05a4.1,4.1,0,0,0,1.19-2.88V29a.67.67,0,0,0-1.34,0v4.2a1.31,1.31,0,0,1-2.61,0V29a3.28,3.28,0,0,1,6.57,0v8.16a6.65,6.65,0,0,1-1.93,4.7l-6.86,7.67A1.3,1.3,0,0,1,13,50Z"/><path class="cls-1" d="M4.41,46.61a1.31,1.31,0,0,1-1-2.19L10.22,37l0,0a4,4,0,0,0,1.19-2.88V22.73A7.43,7.43,0,0,1,12.7,18.6L17.09,12a3.88,3.88,0,0,1,6.45,4.3l-2.48,3.73a4.82,4.82,0,0,0-.81,2.68v4.32a1.31,1.31,0,1,1-2.61,0V22.73a7.43,7.43,0,0,1,1.25-4.13l2.48-3.73a1.26,1.26,0,0,0-1.05-2,1.26,1.26,0,0,0-1.05.56l-4.39,6.58a4.82,4.82,0,0,0-.81,2.68V34.1a6.65,6.65,0,0,1-1.94,4.71L5.37,46.18A1.3,1.3,0,0,1,4.41,46.61Z"/><path class="cls-1" d="M1.31,50l-.25,0-.24-.08a1.26,1.26,0,0,1-.22-.12A1.32,1.32,0,0,1,0,48.69a1.48,1.48,0,0,1,0-.25,2,2,0,0,1,.07-.24A1.2,1.2,0,0,1,.22,48a1.61,1.61,0,0,1,.16-.2,1.35,1.35,0,0,1,1.85,0,1.57,1.57,0,0,1,.16.2,1.2,1.2,0,0,1,.12.22,2,2,0,0,1,.07.24,1.48,1.48,0,0,1,0,.25,1.33,1.33,0,0,1-.38.92,1.29,1.29,0,0,1-.2.17,1.46,1.46,0,0,1-.22.12L1.57,50Z"/><path class="cls-1" d="M13.76,10.13a1.3,1.3,0,0,1-.92-.38L10.46,7.38a1.31,1.31,0,0,1,1.85-1.85L14.68,7.9a1.31,1.31,0,0,1-.92,2.23Z"/><path class="cls-1" d="M24.78,6a1.31,1.31,0,0,1-1.31-1.31V1.3a1.31,1.31,0,1,1,2.61,0V4.65A1.31,1.31,0,0,1,24.78,6Z"/><path class="cls-1" d="M8,21.15H4.69a1.31,1.31,0,1,1,0-2.61H8a1.31,1.31,0,1,1,0,2.61Z"/><path class="cls-1" d="M35.8,10.13a1.31,1.31,0,0,1-.92-2.23l2.37-2.37A1.31,1.31,0,0,1,39.1,7.38L36.73,9.74A1.3,1.3,0,0,1,35.8,10.13Z"/><path class="cls-1" d="M44.87,21.15H41.52a1.31,1.31,0,1,1,0-2.61h3.35a1.31,1.31,0,1,1,0,2.61Z"/><path class="cls-1" d="M37,50a1.3,1.3,0,0,1-1-.44l-6.86-7.67a6.64,6.64,0,0,1-1.93-4.7V29a3.28,3.28,0,0,1,6.57,0v4.2a1.31,1.31,0,0,1-2.61,0V29a.67.67,0,0,0-1.34,0v8.16a4,4,0,0,0,1.19,2.88l.05.05L38,47.82A1.31,1.31,0,0,1,37,50Z"/><path class="cls-1" d="M45.59,46.61a1.3,1.3,0,0,1-1-.42L37.87,38.8a6.64,6.64,0,0,1-1.94-4.71V22.73a4.82,4.82,0,0,0-.81-2.68l-4.39-6.58a1.26,1.26,0,0,0-1.05-.56,1.26,1.26,0,0,0-1.05,2l2.48,3.73a7.43,7.43,0,0,1,1.25,4.13v4.32a1.31,1.31,0,0,1-2.61,0V22.73a4.82,4.82,0,0,0-.81-2.68l-2.48-3.73A3.88,3.88,0,1,1,32.91,12L37.3,18.6a7.43,7.43,0,0,1,1.25,4.13V34.1A4,4,0,0,0,39.74,37l0,0,6.78,7.4a1.31,1.31,0,0,1-1,2.19Z"/><path class="cls-1" d="M48.69,50a1.3,1.3,0,0,1-.92-.39,1.24,1.24,0,0,1-.17-.2,1.42,1.42,0,0,1-.12-.22,1.61,1.61,0,0,1-.08-.24,1.58,1.58,0,0,1,0-.26,1.34,1.34,0,0,1,.38-.92,1.36,1.36,0,0,1,1.85,0,1.31,1.31,0,0,1,.38.92,1.16,1.16,0,0,1,0,.26,1.53,1.53,0,0,1-.07.24,1.45,1.45,0,0,1-.12.22,1.56,1.56,0,0,1-.16.2,1.09,1.09,0,0,1-.2.17,1.24,1.24,0,0,1-.22.12l-.24.08Z"/></svg>