<svg id="Layer_1" data-name="Layer 1" xmlns="http://www.w3.org/2000/svg" viewBox="0 0 50 50"><defs><style>.cls-1{fill:#0096ff;}</style></defs><title>icon-category-encontro-networking</title><path class="cls-1" d="M34.12,30.63a8.51,8.51,0,1,0-6.35-2.84A8.52,8.52,0,0,0,34.12,30.63Zm0-14.41a5.89,5.89,0,1,1-5.89,5.89A5.9,5.9,0,0,1,34.12,16.23Z"/><path class="cls-1" d="M48.53,47.22H23.91A2.88,2.88,0,0,1,21,44.34V38.21a7.52,7.52,0,0,1,3.68-6.5,1.31,1.31,0,1,0-1.35-2.25,10.26,10.26,0,0,0-5,8.75v6.13a5.51,5.51,0,0,0,5.51,5.51H48.53a1.31,1.31,0,0,0,0-2.62Z"/><path class="cls-1" d="M44.92,29.48a1.31,1.31,0,0,0-1.36,2.25,7.53,7.53,0,0,1,3.66,6.49v.15a1.31,1.31,0,1,0,2.62,0v-.15A10.13,10.13,0,0,0,44.92,29.48Z"/><path class="cls-1" d="M14.92,16.23a8,8,0,1,0-6-2.68A8,8,0,0,0,14.92,16.23Zm0-13.45A5.41,5.41,0,1,1,9.51,8.19,5.42,5.42,0,0,1,14.92,2.78Z"/><path class="cls-1" d="M14.92,31.55H5.66a2.88,2.88,0,0,1-2.88-2.88V22.54A7.52,7.52,0,0,1,6.47,16a1.31,1.31,0,1,0-1.35-2.25,10.26,10.26,0,0,0-5,8.75v6.13a5.51,5.51,0,0,0,5.51,5.5h9.25a1.31,1.31,0,1,0,0-2.62Z"/><path class="cls-1" d="M47.6,42.49a1.33,1.33,0,0,0-.39.93,1.33,1.33,0,0,0,1.32,1.31,1.27,1.27,0,0,0,.92-.39,1.29,1.29,0,0,0,.39-.92,1.32,1.32,0,0,0-.38-.93A1.36,1.36,0,0,0,47.6,42.49Z"/></svg>