<svg id="Layer_1" data-name="Layer 1" xmlns="http://www.w3.org/2000/svg" viewBox="0 0 50 50"><defs><style>.cls-1{fill:#0096ff;}</style></defs><title>icon-category-curso-workshop</title><path class="cls-1" d="M20,7.19A6.19,6.19,0,0,0,15.53,17.7a1,1,0,0,0-.05.25V28.29a1,1,0,0,0,1.71.71l2.74-2.74,2.81,2.81a1,1,0,0,0,1.71-.71V18a1,1,0,0,0-.05-.25A6.19,6.19,0,0,0,20,7.19Zm0,2a4.19,4.19,0,1,1-4.19,4.19A4.2,4.2,0,0,1,20,9.19Zm.67,14.94a1,1,0,0,0-1.41,0l-1.74,1.74V19.06a6.15,6.15,0,0,0,5,0v6.89Z"/><path class="cls-1" d="M44.3,10.52c-.62-.57-6.26-6.24-10-10h0a1.31,1.31,0,0,0-.42-.29,1.33,1.33,0,0,0-.26-.05A1.25,1.25,0,0,0,33.4.16H13.15a8,8,0,0,0-8,8V41.89a8,8,0,0,0,8,8H43.49a1.31,1.31,0,0,0,0-2.62H13.15a5.33,5.33,0,0,1-5.33-5.33V8.11a5.33,5.33,0,0,1,5.33-5.33H32.09v8.9A1.31,1.31,0,0,0,33.4,13h8.77V38.26a1.31,1.31,0,1,0,2.62,0V11.56A1.31,1.31,0,0,0,44.3,10.52ZM34.71,4.65l2.78,2.79,2.92,2.92h-5.7Z"/><path class="cls-1" d="M42.56,42.33a1.36,1.36,0,0,0-.38.93,1.32,1.32,0,0,0,2.24.93,1.35,1.35,0,0,0,.38-.93,1.36,1.36,0,0,0-.38-.93A1.38,1.38,0,0,0,42.56,42.33Z"/></svg>