<svg id="Layer_1" data-name="Layer 1" xmlns="http://www.w3.org/2000/svg" viewBox="0 0 50 50"><defs><style>.cls-1{fill:#0096ff;}</style></defs><title>icon-category-gastronomico</title><path class="cls-1" d="M46.38,25.37H3.84A3.63,3.63,0,0,1,.21,21.75,19.24,19.24,0,0,1,19.43,2.53H30.78A19.24,19.24,0,0,1,50,21.75,3.63,3.63,0,0,1,46.38,25.37ZM19.43,5.17A16.6,16.6,0,0,0,2.86,21.75a1,1,0,0,0,1,1H46.38a1,1,0,0,0,1-1A16.6,16.6,0,0,0,30.78,5.17Z"/><path class="cls-1" d="M18.38,11.9a1.34,1.34,0,0,1-.94-.39,1.28,1.28,0,0,1-.16-.2,1.16,1.16,0,0,1-.12-.23,1.4,1.4,0,0,1-.08-.24,1.6,1.6,0,0,1,0-.26,1.32,1.32,0,0,1,1.58-1.3l.25.08a1.43,1.43,0,0,1,.23.12l.2.16a1.34,1.34,0,0,1,.39.94,1.2,1.2,0,0,1,0,.26,1.06,1.06,0,0,1-.07.24,1.48,1.48,0,0,1-.12.23,1.66,1.66,0,0,1-.16.2,1.55,1.55,0,0,1-.2.16,1.13,1.13,0,0,1-.23.12l-.25.08Z"/><path class="cls-1" d="M25.11,11.9a1.34,1.34,0,0,1-.94-.39,1.28,1.28,0,0,1-.16-.2,1.16,1.16,0,0,1-.12-.23,1.4,1.4,0,0,1-.08-.24,1.6,1.6,0,0,1,0-.26,1.34,1.34,0,0,1,.39-.94,1.37,1.37,0,0,1,1.87,0,1.34,1.34,0,0,1,.39.94,1.6,1.6,0,0,1,0,.26,1.4,1.4,0,0,1-.08.24,1.16,1.16,0,0,1-.12.23,1.28,1.28,0,0,1-.16.2,1.55,1.55,0,0,1-.2.16,1.14,1.14,0,0,1-.23.12l-.25.08Z"/><path class="cls-1" d="M21.74,18.64a1.33,1.33,0,0,1-.93-.39,1.31,1.31,0,0,1-.17-.2,1.32,1.32,0,0,1-.12-.23,1.09,1.09,0,0,1-.07-.24,1.2,1.2,0,0,1,0-.26,1.13,1.13,0,0,1,0-.26,1.21,1.21,0,0,1,.07-.25,1.26,1.26,0,0,1,.12-.22,1.32,1.32,0,0,1,.17-.21A1.35,1.35,0,0,1,22,16l.24.08a1.25,1.25,0,0,1,.23.12,1.29,1.29,0,0,1,.2.16,1.31,1.31,0,0,1,.17.21,1.23,1.23,0,0,1,.12.22,1.61,1.61,0,0,1,.07.25,1.13,1.13,0,0,1,0,.26,1.18,1.18,0,0,1,0,.26,1.41,1.41,0,0,1-.07.24,1.27,1.27,0,0,1-.29.43,1.35,1.35,0,0,1-.2.17,1.26,1.26,0,0,1-.23.12l-.24.08Z"/><path class="cls-1" d="M28.47,18.64l-.26,0L28,18.53a1.27,1.27,0,0,1-.23-.12,1.35,1.35,0,0,1-.2-.17,1.29,1.29,0,0,1-.17-.2,1.32,1.32,0,0,1-.12-.23,1.43,1.43,0,0,1-.07-.24,1.18,1.18,0,0,1,0-.26,1.13,1.13,0,0,1,0-.26,1.64,1.64,0,0,1,.07-.25,1.26,1.26,0,0,1,.12-.22,1.31,1.31,0,0,1,.17-.21A1.33,1.33,0,0,1,28.73,16l.25.08a1.2,1.2,0,0,1,.22.12,1.29,1.29,0,0,1,.2.16,1.31,1.31,0,0,1,.17.21,1.23,1.23,0,0,1,.12.22,1.2,1.2,0,0,1,.07.25,1.13,1.13,0,0,1,0,.26,1.2,1.2,0,0,1,0,.26,1.07,1.07,0,0,1-.07.24,1.27,1.27,0,0,1-.29.43,1.35,1.35,0,0,1-.2.17,1.21,1.21,0,0,1-.22.12l-.25.08Z"/><path class="cls-1" d="M31.84,11.9l-.26,0-.25-.08a1,1,0,0,1-.22-.12,1.31,1.31,0,0,1-.21-.16,1.66,1.66,0,0,1-.16-.2,1.48,1.48,0,0,1-.12-.23,1.4,1.4,0,0,1-.08-.24,1.58,1.58,0,0,1,0-.26,1.34,1.34,0,0,1,.39-.94l.21-.16a1.2,1.2,0,0,1,.22-.12l.25-.08a1.32,1.32,0,0,1,1.58,1.3,1.6,1.6,0,0,1,0,.26,1.42,1.42,0,0,1-.08.24,1.47,1.47,0,0,1-.12.23,1.7,1.7,0,0,1-.17.2A1.34,1.34,0,0,1,31.84,11.9Z"/><path class="cls-1" d="M48.68,47.47H7.06a6.85,6.85,0,0,1,0-13.69h36.1A6.85,6.85,0,0,1,50,40.63v5.53A1.32,1.32,0,0,1,48.68,47.47ZM7.06,36.42a4.2,4.2,0,0,0,0,8.41h40.3v-4.2a4.21,4.21,0,0,0-4.2-4.2Z"/><path class="cls-1" d="M42.94,36.42H40.21a1.32,1.32,0,0,1,0-2.64h2.73a4.2,4.2,0,0,0,0-8.41H6.84a4.2,4.2,0,0,0,0,8.41H23.42a1.32,1.32,0,0,1,0,2.64H6.84a6.85,6.85,0,0,1,0-13.69h36.1a6.85,6.85,0,0,1,0,13.69Z"/><path class="cls-1" d="M31.61,43.09a1.32,1.32,0,0,1-.73-.22l-10-6.66a1.32,1.32,0,0,1,.73-2.42h20.3a1.32,1.32,0,0,1,.72,2.43l-10.3,6.66A1.32,1.32,0,0,1,31.61,43.09ZM26,36.42l5.64,3.76,5.82-3.76Z"/></svg>