<svg xmlns="http://www.w3.org/2000/svg" xmlns:xlink="http://www.w3.org/1999/xlink" width="1500" height="600" viewBox="0 0 1500 600">
  <defs>
    <filter id="Caminho_4" x="19" y="67" width="1461.945" height="531" filterUnits="userSpaceOnUse">
      <feOffset dy="3" input="SourceAlpha"/>
      <feGaussianBlur stdDeviation="3" result="blur"/>
      <feFlood flood-opacity="0.161"/>
      <feComposite operator="in" in2="blur"/>
      <feComposite in="SourceGraphic"/>
    </filter>
    <clipPath id="clip-logo">
      <rect width="1500" height="600"/>
    </clipPath>
  </defs>
  <g id="logo" clip-path="url(#clip-logo)">
    <rect width="1500" height="600" fill="#fff"/>
    <path id="União_2" data-name="União 2" d="M0,125.6c0-10.712,8.108-19.4,18.109-19.4s18.109,8.684,18.109,19.4S28.111,145,18.109,145,0,136.316,0,125.6ZM51.9,72.752C51.9,55.272,65.132,41.1,81.452,41.1S111,55.272,111,72.752,97.772,104.4,81.452,104.4,51.9,90.232,51.9,72.752Zm79.975-31.7c0-22.671,18.78-41.05,41.948-41.05s41.947,18.379,41.947,41.05c0,1.021-.038,2.032-.141,3.395C214.072,65.338,195.949,82.1,173.824,82.1,150.656,82.1,131.876,63.722,131.876,41.05Z" transform="translate(1278.375 25.198)" fill="#055071"/>
    <g transform="matrix(1, 0, 0, 1, 0, 0)" filter="url(#Caminho_4)">
      <path id="Caminho_4-2" data-name="Caminho 4" d="M128.944-101.936l-.86,59.813A277.259,277.259,0,0,0,81.766-46.3Q81.52,6.284,81.52,70.826q0,100.152,1.351,189.454h-34.4q1.6-88.467,1.6-189.454,0-63.429-.491-117.122-17.323,0-47.547,4.451l.983-60.091ZM328.419,260.28H287.261q0-9.737-14.006-71.5-13.637-60.369-19.535-78.73h-1.966q-5.283,16.414-17.692,77.061-12.777,62.039-12.777,73.167H183.322q0-8.346,23.9-93.753T237.872,66.1V61.924Q231.237,44.676,211.7-22.649q-20.149-70.384-20.149-79.287h39.561q0,8.9,11.426,59.813t16.095,63.708H260.6Q265.147,8.51,276.02-42.123t10.873-59.813h36.366q0,7.79-21.07,77.2T275.221,57.751v4.173q8.109,20.03,30.653,104.047T328.419,260.28Zm327.2,120.182-36,3.338q-6.88-71.5-15.173-92.5t-33.848-21q-32.435,0-54.3-51.606T494.427,87.518q0-85.407,23.1-141.6t57.13-56.2q32.435,0,54.3,51.467T650.828,72.5q0,57.309-11.057,103.073t-29.978,70.8v4.451q20.026,5.564,29.732,31.854T655.619,380.462Zm-38.7-299.9q0-58.144-13.269-94.31T571.337-49.912q-17.937,0-30.469,36.444T528.337,78.616q0,57.866,13.33,94.171t32.251,36.305q17.937,0,30.469-36.583T616.918,80.563ZM834.085,260l-28.749,2.226A194.461,194.461,0,0,1,803.37,238.3H801.4q-16.095,30.046-37.6,30.046-20.272,0-30.531-24.064T723.02,148.166q0-8.624.184-24.2t.184-27.264q0-30.88-2.334-98.483l34.278-2.782Q753.366,48.849,753.366,96.7q0,68.159,4.484,91.806t17.63,23.647q14.375,0,24.818-15.579,0-146.333-1.474-198.635L832-4.566q-1.229,52.58-1.229,136.318Q830.768,193.791,834.085,260Zm111.385.278H912.42q1.72-57.587,1.72-132.145,0-74-4.177-129.641l35.384-8.068q-1.6,53.971-1.6,137.709Q943.75,199.633,945.47,260.28Zm5.652-348.306q0,18.918-5.713,33.106T929.5-40.732q-8.6,0-13.453-12.241t-4.853-29.489q0-18.918,5.713-32.828t16.033-13.91q8.723,0,13.453,12.1T951.121-88.026ZM1112.387,204.64l-.614,55.64h-92.882l1.72-53.136q6.143-12.519,28.872-77.339,24.326-69.272,24.326-79.287V46.067A285.183,285.183,0,0,0,1020,50.8l.614-54.805h89.2L1107.964,49.4q-7.74,19.2-27.643,77.9-23.221,68.437-23.22,78.452v4.173A291.191,291.191,0,0,0,1112.387,204.64ZM1289.993,99.759q0,14.188-.737,37l-79.122,3.06q1.72,31.437,11.917,52.3t26.783,20.865q18.429,0,39.192-12.519l-2.457,53.971q-16.955,13.91-42.018,13.91-31.7,0-48.591-40.339t-16.893-97.092q0-59.257,16.033-102.795t44.537-43.538q26.046,0,38.7,31.993T1289.993,99.759Zm-28.749-2.5q0-63.986-24.081-63.986-22.975,0-27.275,66.211Zm184.732,87.076q0,83.46-54.55,83.46-19.9,0-34.769-9.737l4.177-54.805q15.357,12.519,30.592,12.519,14.743,0,20.456-5.564t5.713-18.639q0-20.309-20.64-38.67-18.06-16.136-26.292-31.715-11.3-21.7-11.3-53.136,0-37,12.163-59.535t35.384-22.534q21.746,0,34.155,8.624l-4.177,55.084Q1423,37.442,1406.906,37.442q-19.657,0-19.657,22.812,0,11.684,4.177,18.778T1408.5,96.977q17.815,14.745,25.923,30.324Q1445.975,149.557,1445.975,184.332Z" transform="translate(25.97 202.2)" fill="#055071"/>
    </g>
  </g>
</svg>
